<?xml version="1.0" encoding="utf-8"?>
<!-- Generator: Adobe Illustrator 28.0.0, SVG Export Plug-In . SVG Version: 6.00 Build 0)  -->
<svg version="1.1" id="Layer_1" xmlns="http://www.w3.org/2000/svg" xmlns:xlink="http://www.w3.org/1999/xlink" x="0px" y="0px"
	 viewBox="0 0 215.2 83.3" style="enable-background:new 0 0 215.2 83.3;" xml:space="preserve">
<style type="text/css">
	.st0{fill:#FFFFFF;}
</style>
<g>
	<g>
		<path class="st0" d="M87.1,4h10.1c8.1,0,13.7,5.5,13.7,12.7s-5.6,12.7-13.7,12.7H87.1V4z M97.2,24.4c4.6,0,7.8-3.1,7.8-7.7
			c0-4.5-3.1-7.7-7.8-7.7h-4.4v15.4H97.2z"/>
		<path class="st0" d="M120.3,3.8h5.2l11,25.6h-5.9l-2.4-5.7h-10.9l-2.4,5.7h-5.8L120.3,3.8z M126.3,18.8l-3.4-8.3l-3.4,8.3H126.3z"
			/>
		<path class="st0" d="M138.9,4h5.7v25.5h-5.7V4z"/>
		<path class="st0" d="M148.5,4h5.7v20.3H167v5.1h-18.5V4z"/>
		<path class="st0" d="M170,19.4L160.1,4h6.6l6.2,10.2L179.2,4h6.4l-9.9,15.3v10.1H170V19.4z"/>
		<path class="st0" d="M87.1,35h10.5c6.1,0,9.9,3.6,9.9,8.9c0,5.9-4.6,8.9-10.4,8.9h-4.3v7.6h-5.7V35z M97.3,47.8
			c2.8,0,4.5-1.7,4.5-3.9c0-2.5-1.8-3.9-4.6-3.9h-4.4v7.8H97.3z"/>
		<path class="st0" d="M109.4,35h11.8c3.3,0,5.8,0.9,7.5,2.6c1.4,1.4,2.2,3.4,2.2,5.9c0,4.1-2.2,6.7-5.5,7.9l6.3,9.1h-6.6l-5.6-8.1
			h-4.4v8.1h-5.7C109.4,60.5,109.4,35,109.4,35z M120.8,47.4c2.8,0,4.3-1.5,4.3-3.7c0-2.4-1.7-3.6-4.5-3.6H115v7.3H120.8z"/>
		<path class="st0" d="M132.7,47.7c0-7.2,5.8-13.2,13.7-13.2c8,0,13.7,5.9,13.7,13.2c0,7.2-5.8,13.2-13.7,13.2
			C138.5,60.9,132.7,55,132.7,47.7z M154.2,47.7c0-4.4-3.2-8-7.8-8c-4.6,0-7.7,3.6-7.7,8s3.2,8,7.8,8
			C151,55.7,154.2,52.2,154.2,47.7z"/>
		<path class="st0" d="M162.4,35H182v5.1h-14v5.4h12.3v5.1h-12.2v9.9h-5.7C162.4,60.5,162.4,35,162.4,35z"/>
		<path class="st0" d="M185.1,35h5.7v25.5h-5.7V35z"/>
		<path class="st0" d="M201.4,40.2h-7.8V35H215v5.2h-8v20.3h-5.7L201.4,40.2L201.4,40.2z"/>
	</g>
	<polygon class="st0" points="60.6,83.3 82.6,0 0.2,22.4 25.3,47.8 35,38.5 25.8,29.4 63.5,19.5 53.6,56.8 44,47.5 34.4,56.9 	"/>
</g>
</svg>
