<?xml version="1.0" encoding="utf-8"?>
<!-- Generator: Adobe Illustrator 19.1.1, SVG Export Plug-In . SVG Version: 6.00 Build 0)  -->
<svg version="1.1" id="Layer_1" xmlns="http://www.w3.org/2000/svg" xmlns:xlink="http://www.w3.org/1999/xlink" x="0px" y="0px"
	 width="127.9px" height="75.5px" viewBox="-285.9 529.4 127.9 75.5" style="enable-background:new -285.9 529.4 127.9 75.5;"
	 xml:space="preserve">
<style type="text/css">
	.st0{fill:#FFFFFF;}
</style>
<g>
	<g>
		<path class="st0" d="M-285.9,529.6h10.1c8.1,0,13.7,5.5,13.7,12.7c0,7.2-5.6,12.7-13.7,12.7h-10.1V529.6z M-275.8,550
			c4.6,0,7.8-3.1,7.8-7.7c0-4.5-3.1-7.7-7.8-7.7h-4.4V550H-275.8z"/>
		<path class="st0" d="M-252.7,529.4h5.2l11,25.6h-5.9l-2.4-5.7h-10.9l-2.4,5.7h-5.8L-252.7,529.4z M-246.7,544.4l-3.4-8.3l-3.4,8.3
			H-246.7z"/>
		<path class="st0" d="M-234.1,529.6h5.7v25.5h-5.7V529.6z"/>
		<path class="st0" d="M-224.5,529.6h5.7v20.3h12.8v5.1h-18.5V529.6z"/>
		<path class="st0" d="M-203,545l-9.9-15.4h6.6l6.2,10.2l6.3-10.2h6.4l-9.9,15.3V555h-5.7V545z"/>
		<path class="st0" d="M-285.9,560.6h10.5c6.1,0,9.9,3.6,9.9,8.9c0,5.9-4.6,8.9-10.4,8.9h-4.3v7.6h-5.7V560.6z M-275.7,573.4
			c2.8,0,4.5-1.7,4.5-3.9c0-2.5-1.8-3.9-4.6-3.9h-4.4v7.8H-275.7z"/>
		<path class="st0" d="M-263.6,560.6h11.8c3.3,0,5.8,0.9,7.5,2.6c1.4,1.4,2.2,3.4,2.2,5.9c0,4.1-2.2,6.7-5.5,7.9l6.3,9.1h-6.6
			l-5.6-8.1h-4.4v8.1h-5.7C-263.6,586.1-263.6,560.6-263.6,560.6z M-252.2,573c2.8,0,4.3-1.5,4.3-3.7c0-2.4-1.7-3.6-4.5-3.6h-5.6
			v7.3H-252.2z"/>
		<path class="st0" d="M-240.3,573.3c0-7.2,5.8-13.2,13.7-13.2c8,0,13.7,5.9,13.7,13.2c0,7.2-5.8,13.2-13.7,13.2
			C-234.5,586.5-240.3,580.6-240.3,573.3z M-218.8,573.3c0-4.4-3.2-8-7.8-8c-4.6,0-7.7,3.6-7.7,8c0,4.4,3.2,8,7.8,8
			C-222,581.3-218.8,577.8-218.8,573.3z"/>
		<path class="st0" d="M-210.6,560.6h19.6v5.1h-14v5.4h12.3v5.1h-12.2v9.9h-5.7C-210.6,586.1-210.6,560.6-210.6,560.6z"/>
		<path class="st0" d="M-187.9,560.6h5.7v25.5h-5.7V560.6z"/>
		<path class="st0" d="M-171.6,565.8h-7.8v-5.2h21.4v5.2h-8v20.3h-5.7v-20.3H-171.6z"/>
	</g>
	<g>
		<path class="st0" d="M-285.9,598.7c0-3.4,2.7-6.1,6.3-6.1c3.7,0,6.3,2.7,6.3,6.1s-2.7,6.1-6.3,6.1
			C-283.2,604.8-285.9,602.1-285.9,598.7z M-276,598.7c0-2-1.5-3.7-3.6-3.7c-2.1,0-3.6,1.7-3.6,3.7s1.5,3.7,3.6,3.7
			C-277.5,602.4-276,600.8-276,598.7z"/>
		<path class="st0" d="M-271.8,592.8h5.4c1.5,0,2.7,0.4,3.5,1.2c0.7,0.7,1,1.6,1,2.8c0,1.9-1,3.1-2.5,3.7l2.9,4.2h-3.1l-2.6-3.8h-2
			v3.8h-2.6C-271.8,604.7-271.8,592.8-271.8,592.8z M-266.5,598.5c1.3,0,2-0.7,2-1.7c0-1.1-0.8-1.7-2.1-1.7h-2.6v3.4H-266.5
			L-266.5,598.5z"/>
		<path class="st0" d="M-260.9,598.7c0-3.4,2.6-6.1,6.2-6.1c2.1,0,3.4,0.6,4.7,1.6l-1.6,2c-0.9-0.8-1.7-1.2-3.1-1.2
			c-1.9,0-3.4,1.7-3.4,3.7c0,2.2,1.5,3.8,3.6,3.8c1,0,1.8-0.2,2.5-0.7v-1.7h-2.6v-2.3h5.2v5.2c-1.2,1-2.9,1.9-5.1,1.9
			C-258.4,604.9-260.9,602.3-260.9,598.7z"/>
		<path class="st0" d="M-243.9,592.7h2.4l5.1,12h-2.7l-1.1-2.7h-5l-1.1,2.7h-2.7L-243.9,592.7z M-241.1,599.7l-1.6-3.9l-1.6,3.9
			H-241.1z"/>
		<path class="st0" d="M-235.4,592.8h2.4l5.6,7.3v-7.3h2.6v11.9h-2.2l-5.8-7.6v7.6h-2.6V592.8z"/>
		<path class="st0" d="M-222.7,592.8h2.6v11.9h-2.6V592.8z"/>
		<path class="st0" d="M-218.8,602.9l1.5-1.9c1.1,0.9,2.2,1.4,3.5,1.4c1.1,0,1.7-0.4,1.7-1.2c0-0.7-0.4-1-2.4-1.5
			c-2.4-0.6-3.9-1.3-3.9-3.7c0-2.2,1.7-3.6,4.2-3.6c1.7,0,3.2,0.5,4.4,1.5l-1.4,2c-1.1-0.7-2.1-1.2-3.1-1.2s-1.5,0.5-1.5,1.1
			c0,0.8,0.5,1,2.6,1.6c2.4,0.6,3.8,1.5,3.8,3.6c0,2.4-1.8,3.7-4.4,3.7C-215.6,604.8-217.4,604.2-218.8,602.9z"/>
		<path class="st0" d="M-204.2,592.7h2.4l5.1,12h-2.7l-1.1-2.7h-5l-1.1,2.7h-2.7L-204.2,592.7z M-201.4,599.7l-1.6-3.9l-1.6,3.9
			H-201.4z"/>
		<path class="st0" d="M-194.5,595.2h-3.6v-2.4h9.8v2.4h-3.6v9.5h-2.6C-194.5,604.7-194.5,595.2-194.5,595.2z"/>
		<path class="st0" d="M-187,592.8h2.6v11.9h-2.6V592.8z"/>
		<path class="st0" d="M-182.8,598.7c0-3.4,2.7-6.1,6.3-6.1c3.7,0,6.3,2.7,6.3,6.1s-2.7,6.1-6.3,6.1
			C-180.1,604.9-182.8,602.1-182.8,598.7z M-172.9,598.7c0-2-1.5-3.7-3.6-3.7c-2.1,0-3.6,1.7-3.6,3.7s1.5,3.7,3.6,3.7
			C-174.3,602.4-172.9,600.8-172.9,598.7z"/>
		<path class="st0" d="M-168.7,592.8h2.4l5.6,7.3v-7.3h2.6v11.9h-2.2l-5.8-7.6v7.6h-2.6C-168.7,604.7-168.7,592.8-168.7,592.8z"/>
	</g>
</g>
</svg>
