<?xml version="1.0" encoding="utf-8"?>
<!-- Generator: Adobe Illustrator 28.0.0, SVG Export Plug-In . SVG Version: 6.00 Build 0)  -->
<svg version="1.1" id="svg" xmlns="http://www.w3.org/2000/svg" xmlns:xlink="http://www.w3.org/1999/xlink" x="0px" y="0px"
	 viewBox="0 0 400 400" style="enable-background:new 0 0 400 400;" xml:space="preserve">
<style type="text/css">
	.st0{fill-rule:evenodd;clip-rule:evenodd;fill:#FFFFFF;}
</style>
<g id="svgg">
	<path id="path0" class="st0" d="M311,259.7c0,0.2-0.1,2.1-0.1,4.3l0,4l-7.2,0c-3.9,0,5.1,0.1,20.1,0.1l27.2,0l-0.4-0.4
		c-0.4-0.4-0.5-0.4-4.4-0.5c-7.5-0.2-12.3-0.9-19.8-2.7c-3.2-0.8-4.8-1.2-7.8-2.3c-1.1-0.4-2.3-0.8-2.7-0.9c-0.4-0.1-1-0.4-1.2-0.5
		s-0.8-0.3-1.2-0.5c-0.8-0.3-1.8-0.7-2.2-0.9C311.1,259.4,311,259.4,311,259.7 M263.8,283.9c-3.3,0.4-5.8,1.3-8.3,2.9
		c-1.3,0.8-4.3,3.7-4.3,4.1c0,0.1-0.1,0.2-0.1,0.2c-0.2,0-1.6,2.5-1.9,3.7c-0.8,2.5-1,6.4-0.4,8.4c0.1,0.4,0.3,0.9,0.4,1.2
		c0.7,2.4,4.3,7.5,5.3,7.5c0.1,0,0.2,0.1,0.2,0.2c0,0.4,3.5,2.2,5.3,2.8c4,1.2,8.6,1.3,12.4,0c1.5-0.5,2.2-0.8,2.4-0.9
		c0.1-0.1,0.5-0.3,0.9-0.5c0.4-0.2,1-0.5,1.3-0.7c0.3-0.2,0.6-0.4,0.6-0.4c0.2,0,1-0.8,2.3-2.1c4-4,5.3-10,3.4-15.6
		c-0.3-0.9-1.6-3.5-1.8-3.6c-0.1,0-0.4-0.5-0.8-1c-1-1.3-2.5-2.6-4.6-3.9c-0.6-0.4-2.6-1.3-3.2-1.4c-0.2,0-0.9-0.2-1.6-0.4
		c-1.1-0.3-4.6-0.7-5.3-0.7C265.7,283.7,264.8,283.8,263.8,283.9 M46.5,299.8v15.5H54c8.7,0,9.2-0.1,12.7-1.5
		c0.6-0.2,1.2-0.5,1.3-0.7c0.1-0.1,0.3-0.2,0.4-0.2c0.1,0,0.6-0.4,1.2-0.8c2.2-1.6,3.5-3.4,4.8-6.3c1.4-3.2,1.3-9-0.3-12.7
		c-1.7-3.9-5-6.9-9.2-8.1c-0.5-0.1-1.2-0.4-1.6-0.5c-0.5-0.1-3.1-0.2-8.7-0.3l-8-0.1V299.8 M87.8,284.9c-0.1,0.3-0.3,0.8-0.5,1.2
		c-0.3,0.7-0.7,2-1,2.5c-0.1,0.2-0.2,0.5-0.2,0.7c0,0.2-0.2,0.7-0.4,1.2s-0.4,1.1-0.5,1.3c-0.1,0.2-0.3,0.8-0.5,1.3
		c-0.2,0.5-0.4,1.1-0.5,1.3s-0.3,0.8-0.5,1.3c-0.2,0.5-0.5,1.3-0.7,1.8c-0.2,0.5-0.5,1.3-0.7,1.8c-0.2,0.5-0.4,1.1-0.5,1.4
		c-0.1,0.3-0.2,0.6-0.3,0.8c-0.6,1.3-0.7,1.6-0.7,1.9c0,0.2-0.1,0.4-0.2,0.5c-0.1,0.1-0.4,0.9-0.7,1.8c-0.3,0.9-0.9,2.4-1.2,3.3
		c-0.3,0.9-0.7,1.9-0.8,2.2c-0.1,0.3-0.2,0.6-0.3,0.6c-0.1,0.1-0.2,0.2-0.2,0.4s-0.1,0.6-0.2,0.9c-0.1,0.3-0.4,0.8-0.5,1.2
		c-0.1,0.3-0.3,0.7-0.3,0.7c0,0.1,1.9,0.1,4.2,0.1h4.2l0.8-2.5c0.4-1.4,0.9-2.8,1.1-3.2l0.3-0.7h5.3l5.3,0l0.2,0.5
		c0.1,0.3,0.3,0.7,0.4,1c0.1,0.3,0.3,0.8,0.3,1.1c0.1,0.3,0.2,0.7,0.3,0.9c0.1,0.2,0.3,1,0.5,1.6l0.4,1.2h4.1c4.6,0,4.5,0,3.9-1.1
		c-0.1-0.2-0.4-0.9-0.6-1.5c-0.2-0.5-0.5-1.4-0.7-1.9c-0.4-1.1-1.1-3.1-1.3-3.7c-0.1-0.2-0.3-0.8-0.5-1.3s-0.4-1.1-0.5-1.3
		s-0.3-0.8-0.5-1.3c-0.2-0.5-0.4-1.1-0.5-1.3c-0.1-0.2-0.3-0.8-0.5-1.3c-0.2-0.5-0.4-1.1-0.4-1.2c0-0.2-0.1-0.5-0.2-0.7
		c-0.1-0.3-0.3-0.6-0.9-2.3c-0.1-0.4-0.4-1-0.5-1.3c-0.1-0.4-0.4-1-0.5-1.3c-0.1-0.4-0.5-1.2-0.7-1.9c-0.2-0.7-0.7-1.8-0.9-2.5
		c-0.3-0.7-0.5-1.4-0.5-1.5c0-0.1-0.1-0.4-0.2-0.6c-0.1-0.2-0.2-0.4-0.2-0.6c0-0.1-0.1-0.5-0.3-0.8c-0.1-0.3-0.2-0.6-0.2-0.7
		c0-0.6-0.3-0.7-4.7-0.7H88L87.8,284.9 M112,299.8v15.5h4h4v-15.5v-15.5h-4h-4V299.8 M126.8,299.8v15.5h10.3h10.3v-3.2v-3.2h-6.3
		h-6.3v-12.2v-12.2h-4h-4V299.8 M144.8,284.5c0,0.1,0.1,0.4,0.3,0.6c0.2,0.3,0.6,0.9,0.9,1.5c0.3,0.5,0.8,1.3,1,1.7
		c0.3,0.4,0.5,0.8,0.5,0.9c0,0.1,0.1,0.2,0.2,0.4s0.3,0.5,0.5,0.8c0.2,0.3,0.4,0.8,0.6,1.1c0.2,0.3,0.4,0.7,0.5,0.9
		c0.9,1.5,3,5.3,3.1,5.3c0.1,0,0.2,0.4,0.4,0.8c0.2,0.4,0.4,0.7,0.4,0.8c0.1,0,0.2,0.3,0.3,0.5c0.1,0.2,0.6,1.1,1.1,2l0.9,1.5v6.1
		v6.1h4h4v-6.1v-6.1l0.4-0.7c0.2-0.4,0.4-0.7,0.4-0.8s0.2-0.4,0.5-0.8c0.3-0.4,0.5-0.8,0.6-0.9c0.1-0.1,0.3-0.5,0.4-0.8
		s0.4-0.6,0.4-0.8c0.1-0.1,0.4-0.7,0.8-1.3c0.3-0.6,0.6-1.1,0.6-1.1c0,0,0.6-1,1.2-2.2c0.7-1.2,1.2-2.2,1.2-2.3s0.1-0.2,0.1-0.2
		c0.1,0,0.3-0.3,0.4-0.6s0.4-0.8,0.6-1.1c0.2-0.3,0.3-0.6,0.4-0.6c0.1-0.1,1.3-2.1,1.9-3.2c0.3-0.5,0.5-0.9,0.6-1
		c0.5-0.5,0.2-0.6-4.2-0.6h-4.3l-0.3,0.6c-0.2,0.3-0.7,1.3-1.2,2.2c-0.5,0.9-1.1,2-1.3,2.5c-0.3,0.5-0.5,1-0.6,1
		c-0.1,0-0.2,0.3-0.4,0.6c-0.1,0.3-0.7,1.2-1.1,2.2c-0.5,0.9-1,1.8-1.1,2.1c-0.1,0.2-0.2,0.3-0.3,0.2c0-0.1-0.3-0.6-0.6-1.1
		c-0.3-0.5-0.8-1.4-1-1.9c-0.9-1.6-2-3.7-2.5-4.8c-0.3-0.5-0.6-1.1-0.6-1.2c-0.1-0.1-0.4-0.7-0.7-1.3l-0.6-1.1l-4.4,0
		C146.8,284.3,144.8,284.4,144.8,284.5 M192.7,299.8v15.5h4h4v-5.1V305l3.7-0.1c9.2-0.2,13.9-5.7,11.7-13.6c-0.6-2.3-2.6-4.5-5-5.7
		c-2.5-1.2-2.3-1.2-10.7-1.3l-7.6-0.1V299.8 M221,299.8v15.5h4h4V310v-5.3l0.9,0.1c0.9,0,0.9,0.1,1.4,1c0.3,0.5,0.6,1,0.7,1.1
		s0.2,0.3,0.3,0.4c0.1,0.1,0.2,0.4,0.3,0.6s0.7,1.1,1.2,2c0.5,0.9,1.2,2,1.4,2.3c0.2,0.4,0.8,1.3,1.2,1.9l0.8,1.2l4.4,0
		c2.4,0,4.4,0,4.4,0c0-0.1-1.5-2.6-1.7-2.8c-0.1-0.1-0.5-0.7-0.6-1c-0.1-0.1-0.3-0.5-0.6-0.9c-0.3-0.3-0.5-0.7-0.5-0.7
		s-0.5-0.9-1.2-1.9c-0.6-1-1.2-1.9-1.2-2c0-0.1-0.1-0.2-0.2-0.2c-0.1,0-0.2-0.1-0.3-0.3c-0.1-0.2-0.2-0.4-0.3-0.5
		c-0.3-0.3-0.8-1.3-0.8-1.3c0,0,0.6-0.3,1.2-0.6c7.3-3.6,6.6-14.8-1.2-17.8c-2-0.8-2-0.8-10-0.8l-7.7-0.1V299.8 M288.8,299.8v15.5h4
		h4v-5.8v-5.8h5.8h5.8v-3.2v-3.2h-5.8h-5.8V294v-3.2h6.4h6.4v-3.2v-3.2h-10.4h-10.4V299.8 M314.3,299.8v15.5h4.1h4.1v-15.5v-15.5
		h-4.1h-4.1V299.8 M326.8,287.6v3.2h4.1h4.1v12.2v12.2h4h4v-12.2v-12.2h4h4v-3.2v-3.2h-12.1h-12.1V287.6 M205.5,290.6
		c4.1,1.1,4.1,6.9,0.1,8.2c-0.4,0.1-1.6,0.2-2.8,0.2l-2.1,0v-4.3v-4.3l2,0C203.8,290.3,204.9,290.4,205.5,290.6 M234.4,290.7
		c2.7,0.9,3.5,5.1,1.4,7c-1.2,1-1.3,1.1-4.1,1.1l-2.6,0.1v-4.3v-4.3l2.4,0.1C232.7,290.4,234,290.5,234.4,290.7 M267.9,290.5
		c11.5,2,10,18.8-1.8,18.7c-8.8,0-13-9.8-7-16.1c0.3-0.4,0.7-0.6,0.7-0.6s0.2-0.1,0.3-0.2C261.3,291,265.3,290,267.9,290.5
		 M61.6,291.3c4.4,1.4,6.4,5.4,5.5,10.7c-0.8,4.6-3.5,6.6-9.6,6.8l-3,0.1v-9.1v-9.1l3,0.1C59.9,291,60.8,291.1,61.6,291.3 M93.1,295
		c0.4,1.1,0.7,2.3,0.8,2.5c0.5,1.3,1.7,5.1,1.7,5.2c0,0.1-1.1,0.2-3.3,0.2c-2.4,0-3.3-0.1-3.3-0.2c0-0.2,0.6-2.3,1.1-3.5
		c0.3-1,0.6-1.7,0.9-2.8c0.2-0.6,0.4-1.3,0.6-1.7c0.1-0.3,0.3-0.9,0.4-1.3C92.3,292.6,92.4,292.7,93.1,295"/>
	<path id="path1" class="st0" d="M109.8,191.4c-1,1.2-2.9,3.5-4.2,5.1c-1.3,1.6-2.9,3.5-3.5,4.2c-0.6,0.7-2.2,2.6-3.4,4.2
		c-2.9,3.5-6.9,8.4-8.4,10.2c-1.4,1.6-4.4,5.3-7.8,9.5c-1.4,1.7-3.1,3.8-3.8,4.7c-0.7,0.8-2,2.4-2.8,3.4c-0.9,1.1-2.9,3.5-4.4,5.3
		c-4.3,5.2-10.2,12.3-15.2,18.4c-1.9,2.3-4.4,5.3-5.5,6.7c-1.1,1.4-2.4,2.9-2.7,3.3l-0.6,0.8l3.7-0.1c28.1-0.7,57.6-15.4,80.4-40.3
		c0.8-0.9,1.6-1.7,1.6-1.7c0.1,0,1,1,2.2,2.2c8.4,9.2,23.7,24.5,35.2,34.8c1.1,1,2.2,2,2.7,2.4c0.4,0.4-3.8-3.9-9.4-9.4
		c-30-29.9-46.9-51.2-51.1-64c-0.4-1.1-0.7-2-0.7-2C111.6,189.2,110.8,190.2,109.8,191.4 M287.3,191.2c-0.1,0.1-0.3,0.8-0.6,1.6
		c-0.7,2.1-2,5-3.2,6.9c-0.2,0.3-0.4,0.7-0.5,0.8c-0.7,1.6-7.5,11.4-8.3,12.1c-0.1,0.1-0.2,0.3-0.2,0.4c0,0.1-0.1,0.2-0.1,0.2
		c-0.1,0-0.4,0.3-0.7,0.7c-0.3,0.4-0.6,0.8-0.7,1c-0.1,0.1-0.5,0.6-0.8,1c-0.6,0.7-5.3,6.3-5.5,6.5c-0.5,0.4-2.2,2.5-2.2,2.6
		c0.3,0.8,7.8,8.4,11.8,11.9c19.7,17.3,40.8,27.3,62.3,29.8c3.6,0.4,11.7,0.7,11.7,0.3c0-0.1-0.1-0.2-0.2-0.1
		c-0.1,0.1-0.2,0-0.2-0.1s-0.2-0.4-0.5-0.7c-0.3-0.3-0.5-0.5-0.4-0.5c0.1,0,0-0.1-0.3-0.3c-0.2-0.2-0.3-0.3-0.3-0.3
		c0.1,0-0.1-0.3-0.5-0.6c-1.1-1.2-1.3-1.5-1.9-2.2c-0.3-0.4-0.5-0.8-0.5-0.9c0-0.1-0.1-0.1-0.2-0.1s-0.2,0-0.2-0.1
		c0-0.1-0.3-0.5-0.7-1c-0.4-0.4-0.7-0.9-0.8-1c0-0.1-0.2-0.3-0.3-0.4c-0.2-0.1-0.3-0.3-0.2-0.4c0.1-0.1,0-0.2-0.2-0.2
		c-0.1,0-0.2-0.1-0.2-0.1c0-0.1-0.1-0.2-0.2-0.4c-0.2-0.1-0.3-0.3-0.2-0.4c0-0.1,0-0.1-0.1-0.1c-0.2,0-0.8-0.6-0.8-0.9
		c0-0.1-0.2-0.4-0.5-0.7c-0.7-0.8-1.3-1.5-1.3-1.5c0,0-0.1-0.2-0.3-0.4c-0.2-0.2-0.6-0.6-0.9-1s-0.7-0.9-0.9-1.1
		c-0.2-0.2-0.6-0.7-0.8-1c-0.3-0.4-0.6-0.8-0.7-0.9c-0.1-0.1-0.3-0.3-0.3-0.3c0-0.1-0.3-0.4-0.6-0.8c-0.3-0.3-0.7-0.8-0.8-1
		s-0.2-0.4-0.3-0.3c-0.1,0.1-0.2,0-0.2-0.1c0-0.2-0.3-0.5-1-1.3c-0.2-0.2-0.3-0.4-0.2-0.4c0.1,0-0.1-0.2-0.3-0.4
		c-0.6-0.6-1.3-1.4-1.3-1.5c0,0-0.3-0.4-0.7-0.8c-0.4-0.4-0.7-0.8-0.7-0.8c0-0.1-0.3-0.4-0.6-0.8c-0.3-0.4-0.8-0.9-1-1.2
		c-0.2-0.3-0.6-0.8-0.9-1.1c-0.3-0.3-0.7-0.8-0.9-1.1c-0.2-0.3-0.5-0.6-0.6-0.7c-0.1-0.1-0.2-0.2-0.2-0.3s-0.2-0.4-0.5-0.7
		c-0.3-0.3-0.5-0.5-0.5-0.6c0,0-0.3-0.4-0.6-0.7c-0.3-0.4-0.6-0.7-0.6-0.8s-0.1-0.2-0.3-0.4c-0.2-0.1-0.3-0.3-0.3-0.5
		c0-0.1-0.1-0.2-0.2-0.2c-0.1,0-0.2-0.1-0.2-0.2c0-0.1-0.3-0.5-0.6-0.8c-0.3-0.4-0.6-0.7-0.6-0.8c0-0.1-0.2-0.3-0.4-0.5
		c-1.1-1.2-1.3-1.4-1.3-1.5c0-0.1-0.2-0.2-0.4-0.4c-0.2-0.2-0.4-0.4-0.4-0.4c0,0-0.2-0.4-0.6-0.7c-0.4-0.4-0.6-0.7-0.5-0.7
		c0.1,0,0-0.1-0.2-0.3c-0.2-0.1-0.4-0.4-0.4-0.5c0-0.1-0.1-0.3-0.2-0.3c-0.1-0.1-0.2-0.2-0.2-0.3c0-0.1-0.3-0.5-0.7-0.8
		c-0.4-0.4-0.7-0.7-0.7-0.8c0,0-0.3-0.4-0.6-0.7c-0.3-0.3-0.5-0.7-0.5-0.8c0.1-0.1,0-0.1-0.1-0.1c-0.1,0.1-0.3-0.2-0.5-0.5
		c-0.2-0.3-0.4-0.6-0.5-0.6c-0.2,0-0.8-0.7-0.8-1c0-0.1-0.2-0.3-0.4-0.4c-0.2-0.1-0.3-0.2-0.3-0.3c0,0-0.2-0.4-0.6-0.8
		c-1-1.1-2-2.3-2.2-2.6c-0.1-0.1-0.3-0.4-0.6-0.6c-0.2-0.2-0.4-0.4-0.3-0.4c0.1,0,0-0.2-0.2-0.4c-0.2-0.2-0.5-0.6-0.7-0.8
		c-0.2-0.2-0.6-0.7-0.9-1c-0.3-0.3-0.5-0.6-0.5-0.6c0.1,0-0.1-0.2-0.3-0.4c-0.9-0.9-1.3-1.4-1.3-1.5c0-0.1-0.1-0.2-0.2-0.3
		c-0.1-0.1-0.4-0.5-0.7-0.8c-0.8-0.9-1.1-1.3-1.7-2c-0.3-0.3-0.5-0.6-0.5-0.7c0-0.1-0.1-0.2-0.3-0.3c-0.2-0.1-0.3-0.3-0.3-0.4
		c0-0.1-0.2-0.4-0.5-0.6c-0.6-0.6-1.7-1.9-2.5-3c-0.2-0.3-0.6-0.8-0.9-1c-0.3-0.3-0.4-0.5-0.4-0.5c0.1,0,0-0.1-0.1-0.2
		c-0.1-0.1-0.5-0.6-0.9-1c-0.4-0.4-0.8-0.9-1-1.1c-0.2-0.2-0.3-0.3-0.3-0.4s-0.2-0.3-0.5-0.6c-0.7-0.8-2-2.3-1.9-2.3
		c0,0-0.1-0.2-0.3-0.4c-0.2-0.2-0.6-0.7-1-1.1c-0.3-0.4-0.7-0.9-0.9-1c-0.2-0.2-0.3-0.3-0.2-0.3c0.1,0-0.2-0.3-0.6-0.7
		c-0.4-0.4-0.7-0.7-0.7-0.8C287.7,191.1,287.4,191,287.3,191.2"/>
	<path id="path2" class="st0" d="M198.2,84.1c-0.1,0.2-0.5,0.6-0.8,1c-0.3,0.4-1,1.2-1.5,1.8c-0.5,0.6-1.2,1.4-1.5,1.8
		c-0.3,0.4-0.7,0.8-0.8,1c-0.1,0.1-0.7,0.8-1.2,1.4c-0.5,0.6-1,1.3-1.2,1.4c-0.1,0.1-0.5,0.6-0.9,1.1c-0.7,0.9-1.2,1.5-1.5,1.8
		c-0.1,0.1-0.5,0.6-0.8,1c-0.9,1.1-1.3,1.6-1.5,1.9c-0.1,0.1-0.5,0.6-0.8,1c-0.3,0.4-0.7,0.9-0.8,1c-0.1,0.1-0.6,0.6-1,1.2
		s-1.1,1.3-1.4,1.8c-0.3,0.4-1.4,1.7-2.4,2.9c-1,1.2-1.9,2.3-2.1,2.5c-0.2,0.2-0.7,0.8-1.2,1.4c-0.5,0.6-1,1.1-1,1.1
		c-0.1,0-0.1,0.1-0.1,0.2c0,0.1-0.2,0.4-0.5,0.7c-0.3,0.3-0.7,0.9-1,1.2c-0.3,0.4-0.6,0.7-0.7,0.7c-0.1,0-0.1,0.1-0.1,0.2
		c0,0.1-0.1,0.2-0.1,0.3c-0.1,0-0.5,0.5-1,1c-0.5,0.6-0.9,1.1-1,1.2c-0.1,0.1-0.2,0.3-0.2,0.4c0,0.1-0.1,0.2-0.1,0.2
		c-0.1,0-0.5,0.5-0.9,1c-0.5,0.6-0.9,1.1-1,1.2c-0.1,0.1-0.7,0.8-1.3,1.5c-0.6,0.7-1.2,1.4-1.3,1.5c-0.2,0.1-0.8,0.9-1.7,2.1
		c-0.1,0.2-0.4,0.4-0.5,0.6c-0.1,0.2-0.7,0.9-1.3,1.6c-1.7,2.1-2.8,3.4-3.4,4.1c-0.2,0.2-0.7,0.9-1.2,1.5c-0.5,0.6-0.9,1-1,1
		s-0.1,0.1-0.1,0.3c0,0.1-0.1,0.2-0.1,0.2s-0.3,0.3-0.5,0.6c-0.2,0.3-0.7,0.9-1.1,1.4c-0.4,0.4-1,1.2-1.3,1.6
		c-0.3,0.4-0.9,1.1-1.2,1.5c-1,1.2-5.4,6.5-5.8,7c-0.2,0.2-1.9,2.3-3.8,4.6c-1.9,2.3-3.6,4.4-3.8,4.6c-0.2,0.3-0.5,0.7-0.7,0.8
		c-0.1,0.2-0.5,0.6-0.7,0.9c-0.3,0.4-0.6,0.7-0.7,0.8c-0.4,0.2-0.3,0.4,0.7,1.1c0.5,0.4,1,0.8,1.1,0.9c0.1,0.1,0.5,0.4,1,0.8
		c0.5,0.4,1.4,1.1,2,1.7c0.6,0.6,1.2,1,1.3,1c0.1,0,0.4,0.2,0.7,0.6c0.3,0.3,1.1,1,1.7,1.4c0.7,0.5,1.6,1.2,2.2,1.7
		c0.5,0.4,1.4,1.1,1.9,1.5c0.5,0.4,1.1,0.8,1.3,1c0.2,0.2,0.4,0.3,0.5,0.3c0.1,0,0.4,0.2,0.7,0.5c0.3,0.3,0.9,0.7,1.2,1
		c0.8,0.6,1.2,0.9,1.6,1.3c0.1,0.1,0.7,0.6,1.3,1c0.5,0.4,1.2,1,1.5,1.2c0.3,0.3,0.8,0.7,1.1,0.9c0.3,0.2,0.9,0.7,1.3,1.1
		c0.4,0.4,0.8,0.7,0.9,0.7c0.1,0,0.4,0.2,0.8,0.5c0.3,0.3,0.9,0.8,1.3,1c0.5,0.3,0.6,0.5,0.5,0.6c-0.1,0.1-0.1,0.1,0,0.1
		c0.1,0,0,0.1-0.1,0.2c-0.2,0.1-0.3,0.3-0.3,0.4c0,0.1,0.3-0.1,0.6-0.5c0.9-1,1.4-1.6,1.4-1.7c0-0.1,0.3-0.4,1.6-1.8
		c0.2-0.3,0.9-1,1.4-1.7c0.5-0.7,1-1.2,1.1-1.3c0.1,0,0.5-0.6,1-1.2c0.5-0.6,1.2-1.4,1.4-1.7c0.3-0.3,0.9-1,1.3-1.6
		c0.4-0.5,1-1.2,1.2-1.4c0.2-0.2,0.8-0.9,1.4-1.6c0.5-0.6,1.1-1.4,1.3-1.6c0.2-0.2,0.9-1.1,1.6-1.8c0.7-0.8,1.2-1.5,1.3-1.5
		c0.1,0,0.7-0.8,1.4-1.7c0.7-0.9,1.4-1.6,1.4-1.7c0.1,0,0.5-0.5,0.9-1.1c1-1.2,1.6-1.9,1.9-2.2c0.1-0.1,0.6-0.7,1-1.2
		c0.4-0.5,0.8-1,1-1.2c0.3-0.3,0.6-0.7,2-2.4c0.6-0.7,1.2-1.5,1.4-1.7c0.2-0.2,0.7-0.8,1.2-1.4c0.5-0.6,1-1.1,1-1.1
		c0.1,0,0.1-0.1,0.1-0.2c0-0.1,0.9-1.1,1.7-2c0.2-0.2,0.3-0.4,0.3-0.5s0.1-0.2,0.1-0.2c0.1,0,0.6-0.7,1.3-1.4
		c0.6-0.7,1.4-1.7,1.8-2.1l0.7-0.8l0.7,1c0.4,0.5,0.8,1,0.9,1c0.1,0,0.4,0.5,0.8,0.9c0.9,1.1,1.3,1.6,1.5,1.9c0.1,0.1,0.5,0.6,0.8,1
		c0.5,0.7,1.1,1.4,1.5,1.8c0.1,0.1,0.5,0.6,0.8,1c0.4,0.5,0.7,0.9,0.8,0.9c0.1,0,0.6,0.7,1.2,1.5c0.6,0.8,1.2,1.5,1.2,1.5
		c0.1,0,0.5,0.6,1.1,1.3c0.5,0.7,1.1,1.3,1.2,1.4c0.1,0.1,0.6,0.7,1.2,1.4c0.5,0.7,1.1,1.3,1.2,1.4c0.1,0.1,0.5,0.5,0.8,1
		c0.7,0.9,1.2,1.5,1.5,1.8c0.1,0.1,0.5,0.6,0.8,1s0.7,0.9,0.8,1c0.1,0.1,0.4,0.5,0.8,0.9c0.7,0.8,1.7,2,2.2,2.7
		c0.2,0.2,0.6,0.8,0.9,1.2c0.3,0.4,0.6,0.8,0.7,0.9c0.1,0.1,0.6,0.7,1.2,1.4c0.5,0.7,1.1,1.3,1.2,1.4s0.5,0.5,0.8,1
		c0.4,0.5,0.8,1,0.9,1.1c0.1,0.2,0.4,0.4,0.5,0.6c0.1,0.1,0.5,0.6,0.8,1c0.3,0.4,0.7,0.9,0.8,1c0.1,0.1,0.6,0.6,0.9,1.1
		c0.4,0.5,0.9,1.1,1.2,1.5c0.3,0.3,0.5,0.6,0.5,0.6c-0.1,0,0.1,0.2,0.3,0.5c0.3,0.3,0.7,0.7,0.9,1c0.3,0.3,0.4,0.5,0.3,0.3
		c-0.1-0.1-0.2-0.4-0.4-0.5c-0.2-0.3-0.2-0.3,0-0.3c0.2,0,0.3-0.1,0.3-0.2c0-0.1,0.3-0.3,0.7-0.6c0.4-0.2,1-0.7,1.3-1
		c0.3-0.3,1-0.9,1.6-1.3c0.5-0.4,1.4-1.2,2-1.7c0.5-0.5,1.1-0.9,1.1-0.9s0.6-0.4,1.1-0.8c0.5-0.4,1.5-1.2,2.2-1.7
		c0.7-0.5,1.4-1.1,1.7-1.4c0.3-0.2,0.5-0.4,0.5-0.4c0,0.1,1-0.6,1.2-0.8c0.1-0.1,1-0.8,2.6-2c0.6-0.4,1.7-1.3,1.8-1.4
		c0-0.1,0.5-0.4,0.9-0.7c0.5-0.3,1.1-0.9,1.5-1.2c0.3-0.3,0.7-0.6,0.7-0.6c0.1,0,0.4-0.2,0.7-0.5c0.3-0.3,1.1-1,1.8-1.5
		c0.6-0.5,1.5-1.2,1.9-1.6c0.9-0.9,1-0.9,1.6-0.2c0.2,0.3,0.5,0.5,0.5,0.5c0,0-0.2-0.4-0.5-0.7c-0.3-0.4-0.8-0.9-1.1-1.2
		c-0.3-0.3-0.5-0.6-0.5-0.6c0,0-0.3-0.4-0.6-0.8c-0.8-0.9-1.6-1.8-2.9-3.5c-0.6-0.7-1.1-1.4-1.2-1.4c-0.1,0-0.7-0.8-1.5-1.8
		c-1.8-2.2-2.5-3-3.2-3.8c-0.3-0.4-0.7-0.9-0.9-1.1c-0.2-0.2-0.5-0.6-0.8-0.9c-0.2-0.3-0.7-0.8-1-1.2c-0.3-0.4-1.2-1.4-1.9-2.3
		c-0.7-0.9-1.5-1.8-1.7-2.1c-1.2-1.5-2.9-3.5-3-3.6c-0.1,0-0.1-0.2-0.1-0.3s-0.1-0.2-0.1-0.2s-0.4-0.4-0.7-0.8c-0.3-0.4-0.8-1-1-1.2
		c-0.2-0.2-0.8-1-1.4-1.7c-0.5-0.7-1.1-1.3-1.2-1.4c-0.1-0.1-0.7-0.8-1.3-1.5s-1.2-1.4-1.3-1.6c-0.1-0.1-0.5-0.6-0.8-0.9
		c-0.3-0.4-0.7-0.9-1-1.2c-0.3-0.3-1-1.2-1.6-2c-0.6-0.8-1.2-1.5-1.2-1.5s-0.4-0.5-0.8-0.9c-0.4-0.5-0.7-0.9-0.8-1
		c-0.2-0.3-0.7-0.8-1.5-1.8c-0.9-1.1-1.3-1.6-1.6-1.9c-0.1-0.1-0.5-0.6-0.8-1c-0.3-0.4-0.6-0.8-0.7-0.9c-0.1-0.1-0.5-0.5-0.8-1
		c-0.4-0.4-0.9-1.1-1.2-1.5c-0.3-0.4-0.8-1-1.2-1.4c-0.3-0.4-1-1.3-1.6-1.9c-0.6-0.7-2.2-2.6-3.6-4.3c-1.4-1.7-2.7-3.3-2.9-3.4
		c-0.2-0.2-0.3-0.4-0.3-0.5c0-0.1-0.1-0.2-0.1-0.2c-0.1,0-0.5-0.5-1-1c-0.5-0.6-0.9-1.1-1-1.2c-0.1-0.1-0.7-0.8-1.3-1.5
		c-0.6-0.7-1.1-1.4-1.2-1.4s-0.6-0.7-1.2-1.4s-1.2-1.5-1.3-1.6c-0.1-0.1-0.4-0.4-0.5-0.6c-0.9-1.1-1.6-2-2-2.4
		c-0.2-0.2-0.8-0.9-1.2-1.5C198.7,83.8,198.6,83.7,198.2,84.1 M136.6,158.6c-0.1,0.2-0.2,0.4-0.3,0.4c-0.1,0.1-0.1,0.2-0.1,0.2
		c0.1,0.1,0.2-0.1,0.4-0.3c0.2-0.2,0.2-0.5,0.2-0.5C136.7,158.3,136.6,158.4,136.6,158.6"/>
	<path id="path3" class="st0" d="M259.5,157.8c-0.1,0.1-0.6,0.4-1,0.8c-0.4,0.4-1.3,1.1-1.9,1.6c-0.6,0.5-1.4,1.2-1.8,1.5
		c-0.3,0.3-0.7,0.5-0.7,0.5c-0.1,0-0.4,0.3-0.7,0.6c-0.3,0.3-1,0.9-1.5,1.2c-0.5,0.3-0.9,0.7-0.9,0.7c-0.1,0.1-1.2,1-1.8,1.4
		c-1.6,1.2-2.5,1.9-2.6,2c-0.2,0.2-1.2,0.9-1.2,0.8c0,0-0.2,0.1-0.5,0.4c-0.3,0.2-1,0.9-1.7,1.4c-0.7,0.5-1.6,1.3-2.2,1.7
		c-0.5,0.4-1,0.8-1.1,0.8s-0.6,0.4-1.1,0.9c-0.6,0.5-1.5,1.3-2,1.7c-0.6,0.4-1.3,1-1.6,1.3c-0.3,0.3-0.9,0.7-1.3,1
		c-0.4,0.2-0.7,0.5-0.7,0.6c0,0.1-0.1,0.2-0.3,0.2c-0.2,0-0.2,0.1-0.1,0.2c0.1,0.1,0.1,0.3,0.1,0.4c-0.1,0.1,0,0.1,0.1,0
		c0.1-0.1,0.3,0.1,0.4,0.3c0.1,0.3,0.3,0.4,0.4,0.3c0.1-0.1,0.1,0,0.1,0.1c-0.1,0.1,0.1,0.4,0.3,0.6c0.2,0.2,0.4,0.4,0.3,0.4
		c-0.1,0,0.1,0.2,0.3,0.4c0.2,0.2,0.4,0.5,0.4,0.6c0,0.1,0.2,0.3,0.3,0.4c0.2,0.1,0.3,0.3,0.3,0.4c0,0.1,0.1,0.3,0.3,0.4
		c0.2,0.1,0.7,0.8,1.2,1.4c0.5,0.6,1,1.3,1.2,1.4c0.3,0.3,0.6,0.7,1.3,1.6c0.3,0.4,0.5,0.7,0.6,0.7c0.1,0.1,1.8,2.1,2.4,2.8
		c0.5,0.6,0.8,1,1.6,1.9c0.2,0.3,0.9,1.1,1.4,1.8c0.5,0.7,1.1,1.3,1.2,1.4c0.1,0.1,0.6,0.7,1.2,1.4c0.6,0.7,1.4,1.7,1.9,2.3
		c0.5,0.6,1.1,1.4,1.4,1.7c0.3,0.4,0.6,0.7,0.7,0.8c0.1,0.1,0.5,0.6,0.8,1c0.4,0.5,0.9,1.1,1.2,1.4s0.6,0.7,0.6,0.8
		c0.1,0.2-2.3,0.2-17,0.2h-17.2v31v31l0.6-0.6c11-10.3,23.7-23.1,33.2-33.6c2.1-2.3,3.5-3.9,7.3-8.2c8.9-10.2,18-22.8,21.1-29.5
		c1.3-2.8,1.5-3.3,2.1-5c0.6-1.7,0.7-2.3,0.5-2.4c-0.1,0-0.4-0.4-0.8-0.9c-0.7-0.8-1.2-1.5-1.5-1.8c-0.1-0.1-0.5-0.6-0.8-1
		c-0.4-0.5-0.8-0.9-0.9-1c-0.1-0.1-0.5-0.6-0.8-1c-0.3-0.4-0.9-1.1-1.1-1.4c-1.2-1.4-1.9-2.3-2.5-2.9c-2.3-2.8-3.2-4-3.4-4.1
		c-0.2-0.2-1-1.1-1.7-2c-0.3-0.4-0.6-0.7-0.7-0.8c-0.1-0.1-0.5-0.6-0.8-1c-0.4-0.5-0.7-0.9-0.8-1c-0.1-0.1-0.5-0.5-0.8-1
		c-0.4-0.4-0.9-1.1-1.3-1.5c-0.3-0.4-1.1-1.3-1.7-2.1c-0.6-0.8-1.2-1.5-1.4-1.6c-0.1-0.1-0.4-0.5-0.7-0.8c-0.2-0.3-0.6-0.8-0.8-1
		c-0.2-0.2-0.7-0.9-1.2-1.4c-0.4-0.5-0.8-1-0.9-1c-0.1,0-0.1-0.1-0.1-0.2c0-0.1-0.1-0.2-0.2-0.2c-0.3,0-0.6-0.6-0.5-0.7
		c0.1-0.1,0-0.1-0.1-0.1c-0.1,0-0.2,0-0.2-0.2c0-0.1,0-0.2,0-0.2C259.8,157.7,259.6,157.7,259.5,157.8 M136.6,158.8
		c-0.2,0.3-0.4,0.5-0.5,0.4c-0.1-0.1-0.3,0.1-0.4,0.4c-0.1,0.3-0.6,0.9-1.1,1.4c-0.5,0.5-1.1,1.3-1.5,1.8c-0.3,0.5-0.8,1-1,1.2
		c-0.2,0.2-0.4,0.4-0.4,0.5c0,0.1-0.1,0.2-0.2,0.2s-0.6,0.5-1,1.1c-0.5,0.6-1,1.2-1.1,1.3c-0.1,0.1-0.5,0.5-0.8,1s-0.8,0.9-1,1.1
		c-0.2,0.2-0.3,0.4-0.3,0.4s-0.1,0.2-0.1,0.2c-0.1,0-0.5,0.5-1,1.1c-0.5,0.6-1,1.1-1,1.1c-0.1,0-0.1,0.2-0.1,0.3
		c0,0.1-0.1,0.2-0.1,0.2c-0.1,0-0.5,0.5-1,1c-0.5,0.6-0.9,1.1-1,1.2c-0.1,0.1-0.7,0.8-1.3,1.5c-0.6,0.7-1.1,1.4-1.2,1.4
		c-0.1,0-0.6,0.7-1.2,1.4c-0.6,0.7-1.1,1.4-1.2,1.5c-0.1,0.1-0.5,0.5-0.8,1c-0.7,0.8-1.2,1.5-1.5,1.8c-0.1,0.1-0.5,0.6-0.8,1
		c-0.7,0.9-1.2,1.5-1.5,1.8c-0.1,0.1-0.5,0.6-0.8,1c-0.4,0.5-0.7,0.9-0.8,1c-0.1,0.1-0.5,0.5-0.8,1c-0.4,0.4-0.9,1.1-1.2,1.5
		c-0.3,0.4-0.8,1-1.2,1.4c-0.3,0.4-0.8,1-1.1,1.3c-0.3,0.3-1,1.2-1.6,1.9c-0.6,0.7-1.3,1.6-1.6,1.9c-0.3,0.3-0.7,0.8-0.9,1.1
		c-0.4,0.6-1.4,1.8-1.7,2.1c-0.1,0.1-0.5,0.6-0.8,1c-0.4,0.5-0.7,0.9-0.8,1c-0.1,0.1-0.5,0.6-1,1.2c-0.4,0.5-0.8,1-0.9,1.1
		c-0.1,0-0.5,0.6-1.1,1.3c-0.5,0.7-1.1,1.4-1.2,1.5c-0.3,0.3-0.6,0.7-1.6,1.9c-0.7,0.9-1.2,1.5-1.5,1.8c-0.1,0.1-0.5,0.6-0.8,1
		c-0.4,0.5-0.7,0.9-0.8,0.9c-0.1,0-0.6,0.7-1.2,1.5s-1.2,1.5-1.2,1.5s-0.6,0.7-1.2,1.4c-0.6,0.7-1.2,1.5-1.4,1.7
		c-0.8,0.9-1.7,2-2,2.4c-0.2,0.2-0.8,1-1.4,1.7c-0.5,0.7-1.1,1.3-1.2,1.4c-0.1,0.1-0.6,0.7-1.2,1.4c-0.5,0.7-1.1,1.3-1.2,1.4
		c-0.1,0.1-0.9,1-1.7,2.1c-2.1,2.6-6.4,7.7-6.6,7.9c-0.1,0.1-0.4,0.5-0.8,0.9c-1,1.2-2.2,2.7-2.3,2.8c-0.1,0-0.4,0.5-0.8,0.9
		c-0.9,1.1-1.3,1.6-1.6,1.9c-0.1,0.1-0.6,0.7-1,1.3c-0.4,0.6-0.9,1.2-1.1,1.4c-0.2,0.2-0.6,0.7-1,1.2c-0.3,0.4-0.7,0.8-0.8,0.9
		c-0.1,0.1-0.7,0.8-1.3,1.5c-0.6,0.7-1.1,1.4-1.2,1.4c-0.1,0-0.6,0.7-1.2,1.4c-1.1,1.4-1.6,2-1.9,2.3c-0.1,0.1-0.5,0.6-0.8,1
		c-0.4,0.5-0.9,1.1-1.1,1.3c-0.3,0.3-0.7,0.8-1,1.2c-0.3,0.4-0.6,0.7-0.7,0.7s-0.1,0.1-0.1,0.2c0,0.1-0.2,0.4-0.5,0.7
		c-0.3,0.3-0.7,0.9-1,1.2c-0.3,0.4-0.6,0.7-0.7,0.7c-0.1,0-0.1,0.1-0.1,0.2s-0.1,0.3-0.1,0.3c-0.1,0-0.4,0.4-0.8,0.8
		c-0.3,0.4-0.9,1-1.2,1.4c-1.1,1.4-1.7,2.2-1.7,2.2c0.1,0.1,0.8-0.7,1.9-2.1c0.8-1,3.1-3.8,3.4-4.1c0.1-0.1,0.4-0.5,0.8-0.9
		c0.3-0.4,1.2-1.4,1.9-2.3c0.7-0.9,2.2-2.7,3.3-4c1.1-1.3,2.5-3,3.1-3.7c0.6-0.7,2.2-2.7,3.6-4.3c3.9-4.8,4.5-5.5,7.2-8.8
		c1.4-1.7,2.8-3.4,3.2-3.8c1.4-1.7,5.6-6.7,12.3-14.9c1.1-1.4,2.6-3.1,3.2-3.8c1.5-1.8,5.5-6.7,8.4-10.2c1.3-1.6,2.8-3.4,3.4-4.2
		c0.6-0.7,2.2-2.6,3.5-4.2c5.2-6.3,6.1-7.3,6.2-7.3c0,0,0.4,0.9,0.7,2c3.4,10.6,16.6,28.2,38.1,50.8c5.6,6,24.9,25.1,25.8,25.5
		c0.2,0.1,0.2-4,0.2-30.7V206h-17.2c-9.4,0-17.2-0.1-17.2-0.1c0-0.1,0.2-0.4,0.5-0.6c0.3-0.3,1-1.2,1.7-2c0.7-0.8,1.3-1.5,1.3-1.6
		c0.2-0.2,1.3-1.5,1.9-2.2c0.4-0.4,0.8-0.9,0.9-1.1c0.2-0.2,1-1.2,2.2-2.6c0.2-0.2,0.4-0.5,0.5-0.6c0.1-0.1,0.6-0.7,1.1-1.3
		c0.5-0.6,0.9-1.1,1-1.2c0.1,0,0.7-0.8,1.4-1.7c0.7-0.9,1.4-1.7,1.5-1.8c0.1-0.1,0.4-0.5,0.8-0.9c0.6-0.8,1.5-1.9,1.7-2
		c0,0,0.5-0.5,0.9-1.1c0.5-0.5,0.9-1.1,1-1.2c0.1-0.1,0.5-0.5,0.8-1c0.4-0.4,0.8-0.9,1-1.1c0.2-0.2,0.3-0.4,0.3-0.5
		c0-0.1,0.1-0.2,0.3-0.3c0.2-0.1,0.3-0.3,0.3-0.5s0.1-0.4,0.2-0.4c0.1-0.1,0.2-0.2,0.1-0.3c-0.1-0.1,0-0.1,0.2-0.1
		c0.2,0.1,0-0.1-0.3-0.5c-0.4-0.3-0.7-0.6-0.8-0.6c-0.1,0-0.4-0.3-0.7-0.6s-0.7-0.6-0.8-0.6c-0.1,0-0.5-0.3-0.9-0.7
		c-0.4-0.4-1-0.9-1.3-1.1c-0.3-0.2-0.8-0.6-1.1-0.9c-0.3-0.3-1-0.8-1.5-1.2c-0.6-0.4-1.1-0.9-1.3-1c-0.3-0.3-0.7-0.6-1.6-1.3
		c-0.4-0.3-0.9-0.7-1.2-1c-0.3-0.3-0.6-0.5-0.7-0.5c-0.1,0-0.3-0.2-0.5-0.3c-0.2-0.2-0.8-0.7-1.3-1c-0.5-0.4-1.4-1-1.9-1.5
		c-0.6-0.4-1.5-1.2-2.2-1.7c-0.7-0.5-1.4-1.1-1.7-1.4c-0.3-0.3-0.6-0.6-0.7-0.6c-0.1,0-0.6-0.5-1.3-1c-0.6-0.6-1.5-1.3-2-1.7
		c-0.5-0.4-0.9-0.7-1-0.8c-0.1-0.2-1.9-1.5-2-1.5C136.9,158.3,136.8,158.6,136.6,158.8"/>
	<path id="path4" class="st0" d="M285.4,190.2c-0.8,2.4-1.2,3.4-2.4,5.7c-3.3,6.8-10.3,16.8-18.6,26.7c-0.5,0.6-1.1,1.4-1.3,1.6
		c-0.2,0.2-0.8,0.9-1.4,1.6c-8.7,10-17.6,19.4-28.8,30.5c-3.4,3.4-6.2,6.2-6.2,6.3c0,0.1-0.1,0.1-0.2,0.1s-0.2,0.1-0.2,0.2
		c0,0.1,0,0.2-0.1,0.2c-0.1,0-1,0.8-2.1,1.8c-1.1,1-2.3,2.2-2.8,2.6l-0.8,0.8l34.4,0c18.9,0,39.3,0,45.2-0.1l10.7-0.1l0-4.4l0-4.4
		l-1.4-0.6c-13.1-5.8-27.1-15.5-38.6-26.7c-2.7-2.6-6.3-6.5-6.4-6.9c0-0.1,1.7-2.2,2.2-2.6c0.2-0.2,4.9-5.8,5.5-6.5
		c0.3-0.4,0.7-0.8,0.8-1c0.1-0.1,0.4-0.5,0.7-1c0.3-0.4,0.6-0.7,0.7-0.7c0.1,0,0.1-0.1,0.1-0.2c0-0.1,0.1-0.3,0.2-0.4
		c0.8-0.7,7.6-10.5,8.3-12.1c0.1-0.1,0.3-0.5,0.5-0.8c1.1-1.8,2.5-4.8,3.1-6.8c0.3-0.8,0.5-1.5,0.6-1.7c0.1-0.2-0.1-0.5-0.5-0.9
		c-0.3-0.3-0.6-0.7-0.6-0.7C286.2,189,285.7,189.5,285.4,190.2 M131.8,226c-8.9,10.2-22.9,21.3-35.6,28.2
		c-14.9,8.2-29,12.2-44.4,12.7c-3.8,0.1-4.8,0.2-5,0.4c-0.2,0.1-0.3,0.2-0.4,0.1c-0.1-0.1-0.1,0,0,0.2c0.1,0.3,3.8,0.3,65.1,0.3
		c35.7,0,65-0.1,64.9-0.1c0-0.1-0.7-0.7-1.5-1.4c-12.4-10.9-30.2-28.3-40-39.2C132.6,224.6,132.9,224.8,131.8,226 M326.2,238
		c0.2,0.3,0.4,0.5,0.4,0.5c0,0-0.1-0.2-0.3-0.5c-0.2-0.3-0.4-0.5-0.4-0.5C325.8,237.5,326,237.7,326.2,238 M312.2,259.9
		c0.2,0.1,0.4,0.2,0.5,0.2c0.4,0,0.2-0.1-0.3-0.3C312,259.7,311.9,259.7,312.2,259.9 M313.5,260.4c0.2,0.1,0.5,0.2,0.7,0.2
		c0.1,0,0-0.1-0.3-0.2C313.1,260.1,313,260.1,313.5,260.4 M314.6,260.8c0.2,0.2,1.8,0.8,1.8,0.7c0,0-0.4-0.2-1-0.4
		C314.9,260.8,314.5,260.7,314.6,260.8 M320.2,262.8c0.1,0.1,0.4,0.2,0.6,0.2c0.4,0,0.3-0.1-0.3-0.2
		C320.1,262.7,320,262.7,320.2,262.8 M321.8,263.3c0.2,0.1,0.4,0.1,0.6,0.1c0.2,0,0.1-0.1-0.1-0.1c-0.2-0.1-0.4-0.1-0.6-0.1
		C321.5,263.2,321.5,263.2,321.8,263.3 M328.8,265.2c0.3,0.1,1.2,0.2,1.1,0.1c0,0-0.4-0.1-0.7-0.2
		C328.6,265,328.5,265.1,328.8,265.2 M333.9,266.2c0.3,0.1,0.7,0.1,1,0.1c0.4,0,0.4,0-0.2-0.1C333.9,266,333.2,266,333.9,266.2
		 M337,266.6c0.2,0,0.5,0,0.7,0c0.2,0,0-0.1-0.4-0.1C336.9,266.5,336.8,266.6,337,266.6 M338.5,266.8c0.2,0,0.5,0,0.7,0
		c0.2,0,0-0.1-0.4-0.1C338.4,266.7,338.3,266.7,338.5,266.8 M340.2,266.9c0.2,0,0.4,0,0.6,0c0.2,0,0-0.1-0.3-0.1
		S340,266.9,340.2,266.9 M342.1,267.1c0.4,0,1,0,1.3,0c0.3,0,0-0.1-0.7-0.1C342,267.1,341.7,267.1,342.1,267.1 M346,267.3
		c0.2,0,0.5,0,0.8,0c0.2,0,0-0.1-0.4-0.1C345.9,267.2,345.8,267.2,346,267.3 M348.7,267.3c1.3,0,1.6,0.1,2,0.4
		c0.2,0.2,0.4,0.3,0.4,0.2C351,267.4,350.4,267.2,348.7,267.3l-1.6-0.1L348.7,267.3"/>
</g>
</svg>
