<?xml version="1.0" encoding="utf-8"?>
<!-- Generator: Adobe Illustrator 19.1.1, SVG Export Plug-In . SVG Version: 6.00 Build 0)  -->
<svg version="1.1" id="Layer_1" xmlns="http://www.w3.org/2000/svg" xmlns:xlink="http://www.w3.org/1999/xlink" x="0px" y="0px"
	 width="215.2px" height="83.3px" viewBox="-141 209.7 215.2 83.3" style="enable-background:new -141 209.7 215.2 83.3;"
	 xml:space="preserve">
<style type="text/css">
	.st0{fill:#FFFFFF;}
</style>
<g>
	<g>
		<path class="st0" d="M-53.9,213.7h10.1c8.1,0,13.7,5.5,13.7,12.7c0,7.2-5.6,12.7-13.7,12.7h-10.1V213.7z M-43.8,234.1
			c4.6,0,7.8-3.1,7.8-7.7c0-4.5-3.1-7.7-7.8-7.7h-4.4v15.4H-43.8z"/>
		<path class="st0" d="M-20.7,213.5h5.2l11,25.6h-5.9l-2.4-5.7h-10.9l-2.4,5.7h-5.8L-20.7,213.5z M-14.7,228.5l-3.4-8.3l-3.4,8.3
			H-14.7z"/>
		<path class="st0" d="M-2.1,213.7h5.7v25.5h-5.7V213.7z"/>
		<path class="st0" d="M7.5,213.7h5.7V234H26v5.1H7.5V213.7z"/>
		<path class="st0" d="M29,229.1l-9.9-15.4h6.6l6.2,10.2l6.3-10.2h6.4L34.7,229v10.1H29V229.1z"/>
		<path class="st0" d="M-53.9,244.7h10.5c6.1,0,9.9,3.6,9.9,8.9c0,5.9-4.6,8.9-10.4,8.9h-4.3v7.6h-5.7V244.7z M-43.7,257.5
			c2.8,0,4.5-1.7,4.5-3.9c0-2.5-1.8-3.9-4.6-3.9h-4.4v7.8H-43.7z"/>
		<path class="st0" d="M-31.6,244.7h11.8c3.3,0,5.8,0.9,7.5,2.6c1.4,1.4,2.2,3.4,2.2,5.9c0,4.1-2.2,6.7-5.5,7.9l6.3,9.1h-6.6
			l-5.6-8.1h-4.4v8.1h-5.7V244.7z M-20.2,257.1c2.8,0,4.3-1.5,4.3-3.7c0-2.4-1.7-3.6-4.5-3.6h-5.6v7.3H-20.2z"/>
		<path class="st0" d="M-8.3,257.4c0-7.2,5.8-13.2,13.7-13.2c8,0,13.7,5.9,13.7,13.2c0,7.2-5.8,13.2-13.7,13.2S-8.3,264.7-8.3,257.4
			z M13.2,257.4c0-4.4-3.2-8-7.8-8s-7.7,3.6-7.7,8c0,4.4,3.2,8,7.8,8C10,265.4,13.2,261.9,13.2,257.4z"/>
		<path class="st0" d="M21.4,244.7H41v5.1h-14v5.4h12.3v5.1H27.1v9.9h-5.7V244.7z"/>
		<path class="st0" d="M44.1,244.7h5.7v25.5h-5.7V244.7z"/>
		<path class="st0" d="M60.4,249.9h-7.8v-5.2h21.4v5.2H66v20.3h-5.7V249.9z"/>
	</g>
	<g>
		<path class="st0" d="M-53.9,282.8c0-3.4,2.7-6.1,6.3-6.1c3.7,0,6.3,2.7,6.3,6.1c0,3.4-2.7,6.1-6.3,6.1S-53.9,286.2-53.9,282.8z
			 M-44,282.8c0-2-1.5-3.7-3.6-3.7s-3.6,1.7-3.6,3.7c0,2,1.5,3.7,3.6,3.7S-44,284.9-44,282.8z"/>
		<path class="st0" d="M-39.8,276.9h5.4c1.5,0,2.7,0.4,3.5,1.2c0.7,0.7,1,1.6,1,2.8c0,1.9-1,3.1-2.5,3.7l2.9,4.2h-3.1l-2.6-3.8h-2
			v3.8h-2.6V276.9z M-34.5,282.6c1.3,0,2-0.7,2-1.7c0-1.1-0.8-1.7-2.1-1.7h-2.6v3.4H-34.5z"/>
		<path class="st0" d="M-28.9,282.8c0-3.4,2.6-6.1,6.2-6.1c2.1,0,3.4,0.6,4.7,1.6l-1.6,2c-0.9-0.8-1.7-1.2-3.1-1.2
			c-1.9,0-3.4,1.7-3.4,3.7c0,2.2,1.5,3.8,3.6,3.8c1,0,1.8-0.2,2.5-0.7v-1.7h-2.6v-2.3h5.2v5.2c-1.2,1-2.9,1.9-5.1,1.9
			C-26.4,289-28.9,286.4-28.9,282.8z"/>
		<path class="st0" d="M-11.9,276.8h2.4l5.1,12h-2.7l-1.1-2.7h-5l-1.1,2.7h-2.7L-11.9,276.8z M-9.1,283.8l-1.6-3.9l-1.6,3.9H-9.1z"
			/>
		<path class="st0" d="M-3.4,276.9H-1l5.6,7.3v-7.3h2.6v11.9H5l-5.8-7.6v7.6h-2.6V276.9z"/>
		<path class="st0" d="M9.3,276.9h2.6v11.9H9.3V276.9z"/>
		<path class="st0" d="M13.2,287l1.5-1.9c1.1,0.9,2.2,1.4,3.5,1.4c1.1,0,1.7-0.4,1.7-1.2c0-0.7-0.4-1-2.4-1.5
			c-2.4-0.6-3.9-1.3-3.9-3.7c0-2.2,1.7-3.6,4.2-3.6c1.7,0,3.2,0.5,4.4,1.5l-1.4,2c-1.1-0.7-2.1-1.2-3.1-1.2c-1,0-1.5,0.5-1.5,1.1
			c0,0.8,0.5,1,2.6,1.6c2.4,0.6,3.8,1.5,3.8,3.6c0,2.4-1.8,3.7-4.4,3.7C16.4,288.9,14.6,288.3,13.2,287z"/>
		<path class="st0" d="M27.8,276.8h2.4l5.1,12h-2.7l-1.1-2.7h-5l-1.1,2.7h-2.7L27.8,276.8z M30.6,283.8l-1.6-3.9l-1.6,3.9H30.6z"/>
		<path class="st0" d="M37.5,279.3h-3.6v-2.4h9.8v2.4h-3.6v9.5h-2.6V279.3z"/>
		<path class="st0" d="M45,276.9h2.6v11.9H45V276.9z"/>
		<path class="st0" d="M49.2,282.8c0-3.4,2.7-6.1,6.3-6.1c3.7,0,6.3,2.7,6.3,6.1c0,3.4-2.7,6.1-6.3,6.1
			C51.9,289,49.2,286.2,49.2,282.8z M59.1,282.8c0-2-1.5-3.7-3.6-3.7c-2.1,0-3.6,1.7-3.6,3.7c0,2,1.5,3.7,3.6,3.7
			C57.7,286.5,59.1,284.9,59.1,282.8z"/>
		<path class="st0" d="M63.3,276.9h2.4l5.6,7.3v-7.3h2.6v11.9h-2.2l-5.8-7.6v7.6h-2.6V276.9z"/>
	</g>
	<polygon class="st0" points="-80.4,293 -58.4,209.7 -140.8,232.1 -115.7,257.5 -106,248.2 -115.2,239.1 -77.5,229.2 -87.4,266.5 
		-97,257.2 -106.6,266.6 	"/>
</g>
</svg>
