<svg width="1127" height="878" viewBox="0 0 1127 878" fill="none" xmlns="http://www.w3.org/2000/svg">
<g clip-path="url(#clip0_360_143)">
<path d="M645.494 452.256H773.956L566.549 200.426L353.073 452.256H481.536V680.696C481.153 680.342 480.534 679.753 479.709 678.987C479.65 678.958 479.591 678.87 479.503 678.811C464.451 665.526 383.119 596.301 318.579 523.837C316.929 525.84 191.678 676.69 14.169 678.192L2.82797 678.369L1.09 680.902H0.029541L549.316 17.1146L551.85 14.0805L563.515 0L1127.03 680.902H645.523V452.226L645.494 452.256Z" fill="#F9F9F9"/>
<path d="M318.52 523.807C309.241 535.266 259.075 591.441 182.457 632.268C179.07 634.065 175.682 635.862 172.324 637.571C168.966 639.25 166.492 640.634 162.427 642.696C139.745 654.126 115.501 662.109 89.6381 668.501C87.1342 669.119 84.6009 669.708 82.0971 670.298C80.8304 670.592 79.5343 670.857 78.2382 671.122C76.9421 671.388 75.6754 671.653 74.3793 671.918C55.1144 675.747 35.0246 678.015 14.2279 678.192L2.88688 678.369L0.029541 680.902L216.304 419.558L235.333 396.552L236.835 394.726C254.48 434.434 284.085 480.328 318.549 523.807H318.52Z" fill="#9B9C9E"/>
<path d="M480.74 680.696L0 680.902L2.09146 678.369L13.4324 678.192C34.2292 678.015 54.3189 675.777 73.5839 671.918C74.88 671.682 76.1467 671.387 77.4428 671.122C78.7389 670.857 80.0055 670.563 81.3017 670.298C83.835 669.738 86.3683 669.149 88.8427 668.501C114.706 662.108 138.979 652.977 161.337 642.313C164.754 640.693 168.171 639.014 171.499 637.306C174.857 635.597 178.157 633.859 181.426 632.092C257.897 590.734 308.976 534.854 318.549 523.807C375.696 586.227 436.996 641.93 480.74 680.666V680.696Z" fill="#6F7072"/>
<path d="M807.655 524.072C816.934 535.531 867.866 591.441 944.484 632.268C947.871 634.065 951.259 635.862 954.617 637.571C957.975 639.25 960.449 640.634 964.514 642.696C987.196 654.126 1011.44 662.109 1037.3 668.501C1039.81 669.119 1042.34 669.708 1044.84 670.298C1046.11 670.592 1047.41 670.857 1048.7 671.122C1050 671.388 1051.27 671.653 1052.56 671.918C1071.83 675.747 1091.92 678.015 1112.71 678.192L1124.05 678.369L1126.97 680.902L910.637 419.558L891.608 396.552L890.106 394.726C872.461 434.434 842.12 480.594 807.655 524.072Z" fill="#9B9C9E"/>
<path d="M645.464 680.932H1127L1124.85 678.31L1112.74 678.192C1091.95 678.015 1072 675.423 1052.59 671.918C1051.3 671.682 1050.03 671.387 1048.73 671.122C1047.44 670.857 1046.17 670.563 1044.87 670.298C1042.34 669.738 1039.81 669.149 1037.33 668.501C1011.47 662.108 987.226 653.212 964.868 642.549C961.451 640.929 958.034 639.25 954.705 637.541C951.347 635.833 948.048 634.095 944.778 632.327C868.308 590.969 817.229 535.089 807.655 524.043C750.508 586.462 689.208 642.166 645.464 680.902V680.932Z" fill="#6F7072"/>
<path d="M0.55957 755.9H48.0739C86.1914 755.9 112.526 781.763 112.526 815.639C112.526 849.515 86.1914 875.378 48.0739 875.378H0.55957V755.9ZM48.0739 851.871C69.7249 851.871 84.7775 837.29 84.7775 815.639C84.7775 793.988 70.1962 779.407 48.0739 779.407H27.3656V851.842H48.0739V851.871Z" fill="#F9F9F9"/>
<path d="M156.741 754.958H181.191L232.947 875.378H205.198L193.916 848.572H142.631L131.349 875.378H104.072L156.771 754.958H156.741ZM184.961 825.537L168.966 786.477L152.971 825.537H184.961Z" fill="#F9F9F9"/>
<path d="M244.229 755.9H271.035V875.85H244.229V755.9Z" fill="#F9F9F9"/>
<path d="M289.416 755.9H316.222V851.4H376.433V875.378H289.387V755.9H289.416Z" fill="#F9F9F9"/>
<path d="M390.542 828.365L343.971 755.93H375.019L404.181 803.915L433.815 755.93H463.92L417.348 827.893V875.408H390.542V828.365Z" fill="#F9F9F9"/>
<path d="M524.572 756.136H573.972C602.663 756.136 620.544 773.074 620.544 797.994C620.544 825.743 598.893 839.853 571.615 839.853H551.378V875.614H524.572V756.136ZM572.558 816.346C585.725 816.346 593.738 808.363 593.738 797.994C593.738 786.241 585.283 779.643 572.087 779.643H551.378V816.346H572.558Z" fill="#F9F9F9"/>
<path d="M629.469 756.136H684.966C700.49 756.136 712.244 760.378 720.256 768.36C726.854 774.959 730.596 784.356 730.596 796.109C730.596 815.404 720.256 827.628 704.732 833.284L734.366 876.085H703.318L676.984 837.968H656.275V876.085H629.469V756.136ZM683.111 814.49C696.278 814.49 703.348 807.421 703.348 797.081C703.348 785.799 695.365 780.143 682.168 780.143H655.833V814.49H683.111Z" fill="#F9F9F9"/>
<path d="M739.079 815.875C739.079 781.999 766.356 753.779 803.531 753.779C840.706 753.779 867.983 781.528 867.983 815.875C867.983 850.222 840.706 877.971 803.531 877.971C766.356 877.971 739.079 850.222 739.079 815.875ZM840.235 815.875C840.235 795.166 825.182 778.229 803.531 778.229C781.88 778.229 767.299 795.166 767.299 815.875C767.299 836.583 782.352 853.521 804.003 853.521C825.654 853.521 840.235 837.055 840.235 815.875Z" fill="#F9F9F9"/>
<path d="M878.794 756.136H970.995V780.114H905.129V805.506H962.983V829.484H905.6V876.056H878.794V756.106V756.136Z" fill="#F9F9F9"/>
<path d="M985.606 756.136H1012.41V876.085H985.606V756.136Z" fill="#F9F9F9"/>
<path d="M1062.28 780.615H1025.58V756.165H1126.26V780.615H1088.62V876.115H1061.81V780.615H1062.28Z" fill="#F9F9F9"/>
</g>
<defs>
<clipPath id="clip0_360_143">
<rect width="1127" height="878" fill="white"/>
</clipPath>
</defs>
</svg>
