<svg width="1127" height="878" viewBox="0 0 1127 878" fill="none" xmlns="http://www.w3.org/2000/svg">
<g clip-path="url(#clip0_360_143)">
<path d="M645.494 452.256H773.956L566.549 200.426L353.073 452.256H481.536V680.696C481.153 680.342 480.534 679.753 479.709 678.987C479.65 678.958 479.591 678.87 479.503 678.811C464.451 665.526 383.119 596.301 318.579 523.837C316.929 525.84 191.678 676.69 14.169 678.192L2.82797 678.369L1.09 680.902H0.029541L549.316 17.1146L551.85 14.0805L563.515 0L1127.03 680.902H645.523V452.226L645.494 452.256Z" fill="#F9F9F9"/>
<path d="M318.52 523.807C309.241 535.266 259.075 591.441 182.457 632.268C179.07 634.065 175.682 635.862 172.324 637.571C168.966 639.25 166.492 640.634 162.427 642.696C139.745 654.126 115.501 662.109 89.6381 668.501C87.1342 669.119 84.6009 669.708 82.0971 670.298C80.8304 670.592 79.5343 670.857 78.2382 671.122C76.9421 671.388 75.6754 671.653 74.3793 671.918C55.1144 675.747 35.0246 678.015 14.2279 678.192L2.88688 678.369L0.029541 680.902L216.304 419.558L235.333 396.552L236.835 394.726C254.48 434.434 284.085 480.328 318.549 523.807H318.52Z" fill="#9B9C9E"/>
<path d="M480.74 680.696L0 680.902L2.09146 678.369L13.4324 678.192C34.2292 678.015 54.3189 675.777 73.5839 671.918C74.88 671.682 76.1467 671.387 77.4428 671.122C78.7389 670.857 80.0055 670.563 81.3017 670.298C83.835 669.738 86.3683 669.149 88.8427 668.501C114.706 662.108 138.979 652.977 161.337 642.313C164.754 640.693 168.171 639.014 171.499 637.306C174.857 635.597 178.157 633.859 181.426 632.092C257.897 590.734 308.976 534.854 318.549 523.807C375.696 586.227 436.996 641.93 480.74 680.666V680.696Z" fill="#6F7072"/>
<path d="M807.655 524.072C816.934 535.531 867.866 591.441 944.484 632.268C947.871 634.065 951.259 635.862 954.617 637.571C957.975 639.25 960.449 640.634 964.514 642.696C987.196 654.126 1011.44 662.109 1037.3 668.501C1039.81 669.119 1042.34 669.708 1044.84 670.298C1046.11 670.592 1047.41 670.857 1048.7 671.122C1050 671.388 1051.27 671.653 1052.56 671.918C1071.83 675.747 1091.92 678.015 1112.71 678.192L1124.05 678.369L1126.97 680.902L910.637 419.558L891.608 396.552L890.106 394.726C872.461 434.434 842.12 480.594 807.655 524.072Z" fill="#9B9C9E"/>
<path d="M645.464 680.932H1127L1124.85 678.31L1112.74 678.192C1091.95 678.015 1072 675.423 1052.59 671.918C1051.3 671.682 1050.03 671.387 1048.73 671.122C1047.44 670.857 1046.17 670.563 1044.87 670.298C1042.34 669.738 1039.81 669.149 1037.33 668.501C1011.47 662.108 987.226 653.212 964.868 642.549C961.451 640.929 958.034 639.25 954.705 637.541C951.347 635.833 948.048 634.095 944.778 632.327C868.308 590.969 817.229 535.089 807.655 524.043C750.508 586.462 689.208 642.166 645.464 680.902V680.932Z" fill="#6F7072"/>
</g>
<defs>
<clipPath id="clip0_360_143">
<rect width="1127" height="878" fill="white"/>
</clipPath>
</defs>
</svg>
