<svg id="svg" version="1.1" xmlns="http://www.w3.org/2000/svg" xmlns:xlink="http://www.w3.org/1999/xlink" width="400" height="400" viewBox="0, 0, 400,400"><g id="svgg"><path id="path0" d="M310.976 259.718 C 310.943 259.919,310.916 261.864,310.916 264.040 L 310.917 267.996 303.750 268.041 C 299.808 268.066,308.844 268.105,323.830 268.127 L 351.076 268.167 350.663 267.766 C 350.257 267.372,350.181 267.363,346.250 267.258 C 338.774 267.058,333.910 266.397,326.417 264.562 C 323.186 263.771,321.662 263.327,318.667 262.301 C 317.612 261.940,316.412 261.530,316.000 261.389 C 315.587 261.249,315.025 261.039,314.750 260.923 C 314.475 260.807,313.912 260.582,313.500 260.424 C 312.680 260.109,311.738 259.708,311.309 259.491 C 311.101 259.386,311.021 259.441,310.976 259.718 M263.750 283.914 C 260.470 284.287,257.932 285.168,255.421 286.806 C 254.158 287.629,251.167 290.524,251.167 290.923 C 251.167 291.057,251.110 291.167,251.042 291.168 C 250.806 291.170,249.488 293.676,249.114 294.833 C 248.312 297.315,248.101 301.282,248.665 303.250 C 248.771 303.617,248.931 304.179,249.022 304.500 C 249.712 306.936,253.276 312.000,254.301 312.000 C 254.411 312.000,254.500 312.069,254.500 312.152 C 254.500 312.543,258.015 314.393,259.833 314.958 C 263.817 316.197,268.466 316.211,272.250 314.997 C 273.764 314.511,274.481 314.241,274.616 314.106 C 274.683 314.039,275.074 313.835,275.485 313.654 C 275.896 313.472,276.475 313.138,276.771 312.912 C 277.068 312.685,277.360 312.500,277.421 312.500 C 277.584 312.500,278.446 311.723,279.731 310.417 C 283.711 306.370,285.026 300.391,283.163 294.816 C 282.866 293.927,281.587 291.343,281.357 291.167 C 281.297 291.121,280.937 290.665,280.556 290.153 C 279.576 288.834,278.050 287.538,275.914 286.211 C 275.281 285.818,273.296 284.921,272.750 284.781 C 272.567 284.734,271.854 284.546,271.167 284.363 C 270.091 284.077,266.547 283.628,265.825 283.686 C 265.692 283.697,264.758 283.800,263.750 283.914 M46.500 299.818 L 46.500 315.333 53.975 315.333 C 62.659 315.333,63.136 315.278,66.667 313.871 C 67.262 313.633,67.868 313.340,68.013 313.219 C 68.158 313.099,68.332 313.000,68.401 313.000 C 68.469 313.000,68.988 312.650,69.554 312.222 C 71.718 310.585,73.080 308.797,74.356 305.917 C 75.784 302.695,75.639 296.952,74.035 293.190 C 72.351 289.241,69.023 286.321,64.833 285.118 C 64.329 284.973,63.617 284.763,63.250 284.652 C 62.783 284.510,60.175 284.428,54.542 284.377 L 46.500 284.303 46.500 299.818 M87.764 284.875 C 87.637 285.173,87.422 285.717,87.286 286.083 C 87.018 286.803,86.542 288.046,86.327 288.583 C 86.254 288.767,86.157 289.067,86.111 289.250 C 86.066 289.433,85.866 289.996,85.668 290.500 C 85.470 291.004,85.245 291.604,85.167 291.833 C 85.089 292.063,84.864 292.662,84.667 293.167 C 84.470 293.671,84.245 294.271,84.167 294.500 C 84.089 294.729,83.865 295.329,83.668 295.833 C 83.472 296.337,83.172 297.162,83.000 297.667 C 82.828 298.171,82.528 298.996,82.332 299.500 C 82.135 300.004,81.907 300.642,81.823 300.917 C 81.740 301.192,81.606 301.567,81.526 301.750 C 80.942 303.081,80.833 303.378,80.833 303.639 C 80.833 303.801,80.764 304.005,80.678 304.092 C 80.593 304.179,80.260 305.000,79.938 305.917 C 79.616 306.833,79.078 308.333,78.743 309.250 C 78.407 310.167,78.063 311.158,77.977 311.452 C 77.891 311.747,77.749 312.033,77.660 312.087 C 77.572 312.142,77.500 312.329,77.500 312.504 C 77.500 312.679,77.394 313.068,77.264 313.369 C 77.134 313.670,76.909 314.191,76.764 314.525 C 76.619 314.860,76.500 315.179,76.500 315.234 C 76.500 315.288,78.396 315.333,80.714 315.333 L 84.927 315.333 85.738 312.875 C 86.184 311.523,86.670 310.098,86.816 309.709 L 87.083 309.001 92.355 309.001 L 97.626 309.000 97.788 309.458 C 97.877 309.710,98.043 310.179,98.156 310.500 C 98.270 310.821,98.421 311.308,98.493 311.583 C 98.565 311.858,98.700 312.271,98.794 312.500 C 98.887 312.729,99.134 313.460,99.343 314.125 L 99.723 315.333 103.861 315.333 C 108.467 315.333,108.361 315.364,107.773 314.200 C 107.648 313.953,107.389 313.300,107.197 312.750 C 107.006 312.200,106.692 311.337,106.501 310.833 C 106.093 309.761,105.366 307.764,105.165 307.167 C 105.088 306.938,104.864 306.337,104.667 305.833 C 104.470 305.329,104.245 304.729,104.167 304.500 C 104.089 304.271,103.864 303.671,103.667 303.167 C 103.470 302.662,103.245 302.063,103.167 301.833 C 103.089 301.604,102.865 301.004,102.670 300.500 C 102.474 299.996,102.283 299.433,102.244 299.250 C 102.205 299.067,102.106 298.767,102.023 298.583 C 101.883 298.272,101.753 297.936,101.121 296.250 C 100.983 295.883,100.758 295.283,100.621 294.917 C 100.483 294.550,100.258 293.950,100.121 293.583 C 99.983 293.217,99.671 292.354,99.427 291.667 C 99.184 290.979,98.763 289.849,98.492 289.155 C 98.221 288.461,98.000 287.782,98.000 287.645 C 98.000 287.509,97.890 287.251,97.755 287.074 C 97.621 286.896,97.508 286.627,97.505 286.477 C 97.502 286.327,97.388 285.990,97.251 285.727 C 97.114 285.465,97.002 285.134,97.001 284.992 C 96.999 284.374,96.707 284.333,92.297 284.333 L 87.995 284.333 87.764 284.875 M112.000 299.833 L 112.000 315.333 116.000 315.333 L 120.000 315.333 120.000 299.833 L 120.000 284.333 116.000 284.333 L 112.000 284.333 112.000 299.833 M126.833 299.833 L 126.833 315.333 137.167 315.333 L 147.500 315.333 147.500 312.083 L 147.500 308.833 141.167 308.833 L 134.833 308.833 134.833 296.583 L 134.833 284.333 130.833 284.333 L 126.833 284.333 126.833 299.833 M144.834 284.456 C 144.834 284.526,144.972 284.808,145.139 285.083 C 145.307 285.358,145.692 286.033,145.995 286.583 C 146.297 287.133,146.760 287.906,147.023 288.300 C 147.285 288.694,147.500 289.083,147.500 289.163 C 147.500 289.244,147.597 289.409,147.715 289.530 C 147.833 289.651,148.061 290.012,148.222 290.333 C 148.383 290.654,148.657 291.142,148.831 291.417 C 149.006 291.692,149.252 292.104,149.380 292.333 C 150.242 293.883,152.407 297.598,152.486 297.667 C 152.540 297.712,152.733 298.050,152.915 298.417 C 153.098 298.783,153.292 299.121,153.348 299.167 C 153.403 299.212,153.554 299.453,153.683 299.702 C 153.811 299.950,154.310 300.831,154.792 301.659 L 155.667 303.164 155.667 309.249 L 155.667 315.333 159.667 315.333 L 163.667 315.333 163.667 309.247 L 163.667 303.160 164.083 302.500 C 164.313 302.137,164.500 301.793,164.500 301.736 C 164.500 301.679,164.710 301.321,164.966 300.941 C 165.223 300.561,165.486 300.137,165.551 300.000 C 165.617 299.862,165.819 299.525,166.000 299.250 C 166.181 298.975,166.382 298.637,166.446 298.500 C 166.509 298.362,166.848 297.780,167.198 297.205 C 167.547 296.631,167.833 296.132,167.833 296.097 C 167.833 296.062,168.396 295.084,169.083 293.922 C 169.771 292.761,170.333 291.747,170.333 291.669 C 170.333 291.591,170.390 291.503,170.458 291.472 C 170.527 291.442,170.715 291.173,170.875 290.875 C 171.035 290.577,171.298 290.090,171.458 289.792 C 171.619 289.494,171.790 289.213,171.839 289.167 C 171.946 289.066,173.120 287.072,173.752 285.917 C 174.003 285.458,174.274 285.012,174.354 284.925 C 174.860 284.377,174.552 284.333,170.171 284.333 L 165.841 284.333 165.529 284.958 C 165.358 285.302,164.838 286.296,164.375 287.167 C 163.912 288.037,163.320 289.162,163.058 289.667 C 162.797 290.171,162.540 290.621,162.487 290.667 C 162.434 290.712,162.276 290.975,162.136 291.250 C 161.997 291.525,161.484 292.500,160.997 293.417 C 160.510 294.333,160.019 295.258,159.907 295.471 C 159.794 295.684,159.665 295.796,159.619 295.721 C 159.574 295.645,159.303 295.152,159.018 294.625 C 158.733 294.098,158.266 293.235,157.979 292.708 C 157.090 291.072,155.966 288.961,155.430 287.920 C 155.148 287.372,154.857 286.847,154.785 286.753 C 154.713 286.660,154.404 286.096,154.099 285.500 L 153.544 284.417 149.189 284.372 C 146.793 284.348,144.834 284.385,144.834 284.456 M192.667 299.820 L 192.667 315.333 196.667 315.333 L 200.667 315.333 200.667 310.188 L 200.667 305.043 204.375 304.961 C 213.572 304.756,218.243 299.296,216.032 291.333 C 215.403 289.066,213.472 286.871,211.039 285.656 C 208.587 284.432,208.781 284.455,200.292 284.377 L 192.667 284.307 192.667 299.820 M221.000 299.820 L 221.000 315.333 225.000 315.333 L 229.000 315.333 229.000 309.991 L 229.000 304.649 229.866 304.700 C 230.722 304.749,230.737 304.760,231.272 305.667 C 231.570 306.171,231.878 306.658,231.957 306.750 C 232.036 306.842,232.156 307.029,232.223 307.167 C 232.291 307.304,232.438 307.567,232.550 307.750 C 232.662 307.933,233.202 308.820,233.752 309.719 C 234.301 310.619,234.931 311.669,235.152 312.053 C 235.372 312.436,235.905 313.313,236.335 314.000 L 237.117 315.250 241.475 315.294 C 243.872 315.319,245.833 315.302,245.833 315.257 C 245.833 315.167,244.303 312.633,244.168 312.500 C 244.042 312.376,243.680 311.786,243.555 311.500 C 243.494 311.362,243.232 310.977,242.972 310.643 C 242.713 310.309,242.500 309.992,242.500 309.939 C 242.500 309.886,241.975 309.018,241.333 308.012 C 240.692 307.005,240.167 306.103,240.167 306.007 C 240.167 305.912,240.097 305.833,240.011 305.833 C 239.926 305.833,239.808 305.684,239.750 305.501 C 239.692 305.318,239.556 305.073,239.447 304.956 C 239.195 304.684,238.616 303.654,238.692 303.611 C 238.724 303.593,239.275 303.318,239.917 303.000 C 247.255 299.360,246.471 288.192,238.667 285.202 C 236.700 284.449,236.680 284.447,228.708 284.376 L 221.000 284.307 221.000 299.820 M288.833 299.833 L 288.833 315.333 292.833 315.333 L 296.833 315.333 296.833 309.500 L 296.833 303.667 302.667 303.667 L 308.500 303.667 308.500 300.417 L 308.500 297.167 302.667 297.167 L 296.833 297.167 296.833 294.000 L 296.833 290.833 303.250 290.833 L 309.667 290.833 309.667 287.583 L 309.667 284.333 299.250 284.333 L 288.833 284.333 288.833 299.833 M314.333 299.833 L 314.333 315.333 318.417 315.333 L 322.500 315.333 322.500 299.833 L 322.500 284.333 318.417 284.333 L 314.333 284.333 314.333 299.833 M326.833 287.583 L 326.833 290.833 330.917 290.833 L 335.000 290.833 335.000 303.083 L 335.000 315.333 339.000 315.333 L 343.000 315.333 343.000 303.083 L 343.000 290.833 347.000 290.833 L 351.000 290.833 351.000 287.583 L 351.000 284.333 338.917 284.333 L 326.833 284.333 326.833 287.583 M205.494 290.580 C 209.578 291.666,209.641 297.522,205.583 298.787 C 205.200 298.907,204.014 298.996,202.792 298.997 L 200.667 299.000 200.667 294.667 L 200.667 290.333 202.625 290.335 C 203.804 290.337,204.946 290.434,205.494 290.580 M234.380 290.652 C 237.073 291.507,237.918 295.786,235.763 297.660 C 234.588 298.681,234.436 298.723,231.625 298.801 L 229.000 298.873 229.000 294.588 L 229.000 290.302 231.375 290.377 C 232.681 290.418,234.033 290.542,234.380 290.652 M267.928 290.507 C 279.453 292.533,277.880 309.261,266.167 309.236 C 257.376 309.217,253.146 299.437,259.208 293.148 C 259.552 292.792,259.881 292.500,259.940 292.500 C 259.999 292.500,260.130 292.396,260.232 292.269 C 261.269 290.972,265.311 290.047,267.928 290.507 M61.583 291.311 C 65.937 292.730,68.008 296.746,67.087 301.981 C 66.272 306.614,63.539 308.542,57.458 308.773 L 54.500 308.885 54.500 299.835 L 54.500 290.784 57.542 290.884 C 59.901 290.963,60.808 291.058,61.583 291.311 M93.149 295.046 C 93.516 296.166,93.896 297.308,93.995 297.583 C 94.450 298.855,95.667 302.671,95.667 302.826 C 95.667 302.941,94.535 303.000,92.333 303.000 C 89.969 303.000,89.000 302.945,89.000 302.812 C 89.000 302.631,89.647 300.542,90.078 299.333 C 90.420 298.374,90.664 297.643,91.024 296.500 C 91.212 295.904,91.463 295.154,91.582 294.833 C 91.700 294.512,91.892 293.934,92.007 293.547 C 92.293 292.588,92.383 292.706,93.149 295.046 " stroke="none" fill="#042e2e" fill-rule="evenodd"></path><path id="path1" d="M109.754 191.376 C 108.748 192.590,106.841 194.896,105.515 196.500 C 104.190 198.104,102.608 200.017,101.999 200.750 C 101.391 201.483,99.849 203.352,98.572 204.903 C 95.695 208.397,91.638 213.312,90.168 215.083 C 88.807 216.724,85.756 220.423,82.333 224.583 C 80.912 226.309,79.184 228.403,78.492 229.236 C 77.800 230.069,76.521 231.612,75.650 232.667 C 74.780 233.721,72.792 236.121,71.234 238.000 C 66.947 243.169,61.070 250.274,56.000 256.418 C 54.121 258.695,51.646 261.688,50.500 263.070 C 49.353 264.453,48.128 265.937,47.777 266.368 L 47.138 267.153 50.860 267.064 C 79.009 266.394,108.440 251.630,131.222 226.750 C 132.062 225.833,132.798 225.083,132.859 225.083 C 132.920 225.083,133.887 226.096,135.009 227.333 C 143.391 236.582,158.755 251.801,170.167 262.158 C 171.221 263.115,172.416 264.202,172.822 264.574 C 173.228 264.946,169.018 260.712,163.466 255.167 C 133.490 225.223,116.570 204.017,112.393 191.153 C 112.039 190.063,111.712 189.171,111.667 189.170 C 111.621 189.169,110.760 190.161,109.754 191.376 M287.254 191.161 C 287.197 191.252,286.937 191.985,286.675 192.789 C 286.004 194.848,284.639 197.826,283.523 199.667 C 283.329 199.987,283.118 200.362,283.055 200.500 C 282.343 202.057,275.568 211.894,274.721 212.602 C 274.600 212.703,274.500 212.872,274.500 212.977 C 274.500 213.081,274.438 213.167,274.362 213.167 C 274.285 213.167,273.983 213.502,273.689 213.911 C 273.394 214.321,273.062 214.752,272.950 214.870 C 272.837 214.987,272.484 215.420,272.164 215.831 C 271.588 216.572,266.863 222.173,266.679 222.333 C 266.201 222.748,264.483 224.863,264.527 224.982 C 264.833 225.818,272.336 233.365,276.365 236.888 C 296.105 254.153,317.145 264.212,338.667 266.674 C 342.297 267.089,350.333 267.325,350.333 267.016 C 350.333 266.905,350.258 266.860,350.167 266.917 C 350.075 266.973,350.000 266.949,350.000 266.863 C 350.000 266.777,349.761 266.472,349.468 266.186 C 349.176 265.901,348.997 265.667,349.070 265.667 C 349.144 265.667,349.027 265.519,348.810 265.339 C 348.594 265.159,348.465 265.009,348.525 265.006 C 348.585 265.002,348.377 264.719,348.063 264.375 C 346.983 263.190,346.748 262.918,346.208 262.220 C 345.910 261.835,345.667 261.436,345.667 261.333 C 345.667 261.231,345.592 261.193,345.500 261.250 C 345.408 261.307,345.333 261.282,345.333 261.196 C 345.333 261.110,344.997 260.674,344.585 260.228 C 344.174 259.782,343.836 259.341,343.835 259.248 C 343.834 259.156,343.680 258.985,343.494 258.868 C 343.307 258.751,343.199 258.583,343.253 258.495 C 343.308 258.406,343.232 258.333,343.083 258.333 C 342.935 258.333,342.852 258.272,342.898 258.197 C 342.944 258.122,342.840 257.958,342.667 257.833 C 342.493 257.708,342.389 257.545,342.435 257.470 C 342.482 257.395,342.434 257.333,342.328 257.333 C 342.137 257.333,341.516 256.683,341.506 256.473 C 341.502 256.412,341.256 256.100,340.958 255.780 C 340.250 255.020,339.667 254.323,339.667 254.236 C 339.667 254.198,339.535 254.022,339.375 253.846 C 339.215 253.670,338.821 253.217,338.500 252.840 C 338.179 252.463,337.762 251.989,337.574 251.786 C 337.385 251.583,337.014 251.117,336.750 250.750 C 336.485 250.383,336.152 249.986,336.010 249.868 C 335.867 249.749,335.750 249.597,335.750 249.529 C 335.750 249.461,335.464 249.120,335.115 248.770 C 334.766 248.421,334.410 247.950,334.324 247.724 C 334.238 247.498,334.092 247.360,334.000 247.416 C 333.908 247.473,333.833 247.440,333.833 247.343 C 333.833 247.174,333.581 246.860,332.787 246.042 C 332.587 245.835,332.475 245.667,332.538 245.667 C 332.600 245.667,332.486 245.494,332.284 245.284 C 331.682 244.655,331.000 243.842,331.000 243.752 C 331.000 243.705,330.700 243.358,330.333 242.980 C 329.967 242.602,329.667 242.227,329.667 242.147 C 329.667 242.066,329.385 241.709,329.042 241.354 C 328.698 240.999,328.234 240.467,328.010 240.171 C 327.786 239.875,327.382 239.397,327.112 239.108 C 326.842 238.820,326.425 238.321,326.186 238.000 C 325.947 237.679,325.676 237.363,325.584 237.298 C 325.492 237.232,325.417 237.108,325.417 237.022 C 325.417 236.936,325.173 236.633,324.875 236.348 C 324.577 236.063,324.333 235.800,324.333 235.762 C 324.333 235.725,324.064 235.394,323.735 235.027 C 323.406 234.661,323.133 234.298,323.129 234.222 C 323.125 234.146,322.982 233.985,322.811 233.866 C 322.640 233.746,322.500 233.540,322.500 233.407 C 322.500 233.275,322.387 233.167,322.250 233.167 C 322.112 233.167,322.000 233.098,322.000 233.014 C 322.000 232.929,321.731 232.561,321.402 232.194 C 321.072 231.827,320.808 231.485,320.814 231.434 C 320.821 231.383,320.659 231.155,320.455 230.928 C 319.391 229.747,319.167 229.478,319.167 229.392 C 319.167 229.340,318.975 229.147,318.741 228.963 C 318.507 228.779,318.349 228.595,318.391 228.554 C 318.432 228.513,318.158 228.184,317.782 227.823 C 317.407 227.462,317.169 227.167,317.254 227.167 C 317.338 227.167,317.241 227.050,317.037 226.907 C 316.833 226.765,316.667 226.548,316.667 226.425 C 316.667 226.303,316.554 226.159,316.417 226.106 C 316.279 226.054,316.167 225.939,316.167 225.852 C 316.167 225.764,315.867 225.390,315.500 225.020 C 315.133 224.649,314.833 224.310,314.833 224.266 C 314.833 224.221,314.576 223.904,314.260 223.560 C 313.945 223.216,313.732 222.863,313.786 222.775 C 313.840 222.687,313.809 222.662,313.716 222.719 C 313.623 222.777,313.407 222.563,313.236 222.245 C 313.064 221.927,312.860 221.667,312.780 221.667 C 312.584 221.667,312.012 220.964,312.006 220.714 C 312.002 220.603,311.844 220.428,311.652 220.326 C 311.461 220.223,311.338 220.106,311.379 220.066 C 311.419 220.025,311.144 219.658,310.768 219.250 C 309.738 218.134,308.769 216.990,308.597 216.687 C 308.512 216.538,308.250 216.248,308.013 216.042 C 307.777 215.836,307.636 215.667,307.701 215.667 C 307.765 215.667,307.653 215.490,307.451 215.274 C 307.249 215.058,306.933 214.680,306.750 214.435 C 306.567 214.189,306.161 213.728,305.849 213.411 C 305.537 213.093,305.328 212.833,305.384 212.833 C 305.439 212.833,305.320 212.657,305.117 212.442 C 304.266 211.536,303.833 211.023,303.833 210.920 C 303.833 210.859,303.740 210.713,303.625 210.595 C 303.510 210.476,303.192 210.101,302.917 209.761 C 302.153 208.816,301.857 208.470,301.247 207.810 C 300.939 207.476,300.727 207.162,300.776 207.113 C 300.825 207.063,300.708 206.925,300.516 206.805 C 300.324 206.685,300.167 206.522,300.167 206.443 C 300.167 206.365,299.960 206.090,299.708 205.832 C 299.082 205.192,298.029 203.942,297.167 202.814 C 296.938 202.514,296.536 202.058,296.274 201.801 C 296.012 201.544,295.849 201.333,295.911 201.333 C 295.973 201.333,295.925 201.224,295.804 201.090 C 295.682 200.956,295.283 200.498,294.917 200.072 C 294.550 199.647,294.119 199.156,293.958 198.982 C 293.798 198.809,293.667 198.632,293.667 198.589 C 293.667 198.546,293.460 198.295,293.208 198.031 C 292.470 197.258,291.246 195.775,291.295 195.715 C 291.320 195.684,291.170 195.485,290.962 195.271 C 290.754 195.058,290.321 194.561,290.000 194.167 C 289.679 193.773,289.271 193.312,289.094 193.142 C 288.916 192.972,288.828 192.833,288.898 192.833 C 288.969 192.833,288.720 192.530,288.347 192.160 C 287.973 191.790,287.667 191.419,287.667 191.337 C 287.667 191.103,287.368 190.975,287.254 191.161 " stroke="none" fill="#1e8671" fill-rule="evenodd"></path><path id="path2" d="M198.158 84.135 C 198.016 84.290,197.644 84.754,197.332 85.167 C 197.020 85.579,196.349 86.411,195.840 87.015 C 195.332 87.619,194.654 88.438,194.333 88.836 C 194.012 89.233,193.637 89.679,193.500 89.827 C 193.362 89.974,192.824 90.625,192.304 91.273 C 191.784 91.921,191.259 92.556,191.138 92.684 C 191.016 92.812,190.617 93.292,190.250 93.750 C 189.543 94.635,189.025 95.259,188.747 95.564 C 188.653 95.666,188.278 96.123,187.913 96.579 C 187.033 97.678,186.627 98.165,186.372 98.430 C 186.256 98.550,185.887 99.009,185.552 99.449 C 185.217 99.890,184.853 100.325,184.743 100.417 C 184.633 100.508,184.187 101.033,183.752 101.583 C 183.317 102.133,182.678 102.921,182.332 103.333 C 181.986 103.746,180.900 105.058,179.917 106.250 C 178.934 107.442,178.006 108.567,177.854 108.750 C 177.702 108.933,177.175 109.571,176.682 110.167 C 176.189 110.763,175.722 111.275,175.643 111.306 C 175.564 111.336,175.500 111.434,175.500 111.523 C 175.500 111.612,175.271 111.924,174.990 112.217 C 174.710 112.510,174.247 113.069,173.962 113.458 C 173.677 113.848,173.381 114.167,173.305 114.167 C 173.229 114.167,173.167 114.279,173.167 114.417 C 173.167 114.554,173.110 114.667,173.042 114.668 C 172.973 114.669,172.542 115.128,172.083 115.690 C 171.625 116.251,171.156 116.808,171.042 116.927 C 170.927 117.046,170.833 117.223,170.833 117.321 C 170.833 117.420,170.777 117.500,170.708 117.501 C 170.640 117.501,170.212 117.961,169.758 118.522 C 169.304 119.084,168.854 119.628,168.758 119.732 C 168.662 119.835,168.097 120.519,167.503 121.252 C 166.909 121.984,166.341 122.658,166.239 122.750 C 166.081 122.893,165.483 123.630,164.500 124.895 C 164.362 125.072,164.137 125.340,164.000 125.492 C 163.862 125.643,163.262 126.363,162.667 127.092 C 160.945 129.197,159.895 130.459,159.275 131.167 C 159.074 131.396,158.536 132.052,158.080 132.624 C 157.623 133.197,157.194 133.666,157.125 133.666 C 157.056 133.666,157.000 133.779,157.000 133.917 C 157.000 134.054,156.937 134.167,156.860 134.167 C 156.783 134.167,156.539 134.418,156.318 134.724 C 156.097 135.031,155.601 135.649,155.214 136.099 C 154.828 136.549,154.240 137.254,153.909 137.667 C 153.577 138.079,153.019 138.754,152.668 139.167 C 151.645 140.371,147.281 145.664,146.917 146.144 C 146.733 146.385,145.046 148.433,143.167 150.695 C 141.287 152.957,139.563 155.047,139.333 155.340 C 139.104 155.633,138.801 155.995,138.660 156.144 C 138.519 156.294,138.186 156.717,137.920 157.083 C 137.653 157.450,137.337 157.810,137.218 157.883 C 136.856 158.105,136.959 158.263,137.958 159.010 C 138.485 159.405,138.958 159.788,139.008 159.861 C 139.059 159.935,139.509 160.300,140.008 160.673 C 140.508 161.045,141.429 161.815,142.055 162.383 C 142.680 162.952,143.249 163.417,143.317 163.417 C 143.386 163.417,143.691 163.665,143.995 163.970 C 144.299 164.274,145.081 164.924,145.732 165.415 C 146.384 165.906,147.367 166.658,147.917 167.085 C 148.467 167.512,149.329 168.169,149.833 168.544 C 150.337 168.920,150.915 169.382,151.116 169.572 C 151.318 169.761,151.554 169.917,151.641 169.917 C 151.729 169.917,152.052 170.142,152.360 170.417 C 152.667 170.692,153.218 171.140,153.584 171.414 C 154.426 172.042,154.804 172.349,155.145 172.679 C 155.295 172.823,155.867 173.288,156.417 173.712 C 156.967 174.136,157.656 174.693,157.948 174.950 C 158.240 175.207,158.727 175.604,159.031 175.833 C 159.334 176.063,159.928 176.569,160.350 176.958 C 160.772 177.348,161.194 177.667,161.288 177.667 C 161.382 177.667,161.730 177.910,162.062 178.208 C 162.394 178.506,162.966 178.971,163.333 179.240 C 163.801 179.584,163.938 179.770,163.792 179.863 C 163.677 179.935,163.658 179.998,163.750 180.003 C 163.842 180.007,163.785 180.087,163.625 180.180 C 163.465 180.273,163.334 180.440,163.335 180.550 C 163.337 180.660,163.618 180.438,163.960 180.056 C 164.836 179.081,165.379 178.431,165.400 178.334 C 165.415 178.259,165.721 177.915,167.028 176.498 C 167.273 176.233,167.907 175.469,168.438 174.800 C 168.968 174.131,169.457 173.560,169.524 173.531 C 169.591 173.503,170.059 172.968,170.563 172.344 C 171.068 171.719,171.716 170.955,172.004 170.646 C 172.292 170.337,172.877 169.633,173.304 169.083 C 173.730 168.533,174.269 167.896,174.501 167.667 C 174.733 167.438,175.343 166.725,175.858 166.083 C 176.372 165.442,176.961 164.729,177.167 164.500 C 177.373 164.271,178.075 163.446,178.728 162.667 C 179.381 161.887,179.958 161.212,180.010 161.167 C 180.062 161.121,180.698 160.371,181.423 159.500 C 182.148 158.629,182.785 157.879,182.838 157.833 C 182.891 157.787,183.307 157.300,183.762 156.750 C 184.794 155.503,185.343 154.862,185.674 154.518 C 185.816 154.371,186.263 153.837,186.667 153.333 C 187.071 152.829,187.517 152.296,187.659 152.149 C 187.970 151.826,188.258 151.482,189.667 149.755 C 190.262 149.025,190.900 148.275,191.083 148.088 C 191.267 147.902,191.829 147.262,192.332 146.667 C 192.836 146.071,193.305 145.558,193.374 145.528 C 193.443 145.497,193.500 145.408,193.500 145.330 C 193.500 145.205,194.360 144.185,195.208 143.303 C 195.369 143.136,195.500 142.931,195.500 142.847 C 195.500 142.763,195.564 142.669,195.643 142.639 C 195.722 142.608,196.290 141.983,196.907 141.250 C 197.523 140.517,198.329 139.558,198.699 139.120 L 199.371 138.324 200.119 139.287 C 200.530 139.817,200.918 140.287,200.981 140.333 C 201.043 140.379,201.392 140.789,201.756 141.245 C 202.617 142.324,203.035 142.827,203.294 143.096 C 203.411 143.217,203.759 143.647,204.069 144.053 C 204.591 144.737,205.175 145.446,205.587 145.897 C 205.680 146.000,206.055 146.458,206.420 146.917 C 206.785 147.375,207.125 147.787,207.176 147.833 C 207.228 147.879,207.789 148.554,208.424 149.333 C 209.058 150.112,209.620 150.787,209.673 150.833 C 209.725 150.879,210.206 151.479,210.742 152.167 C 211.278 152.854,211.799 153.492,211.900 153.583 C 212.001 153.675,212.526 154.313,213.066 155.000 C 213.607 155.688,214.132 156.325,214.233 156.417 C 214.334 156.508,214.717 156.958,215.083 157.417 C 215.790 158.300,216.307 158.925,216.587 159.231 C 216.680 159.333,217.055 159.792,217.420 160.250 C 217.785 160.708,218.158 161.164,218.250 161.264 C 218.342 161.364,218.679 161.772,219.000 162.171 C 219.664 162.997,220.686 164.218,221.226 164.833 C 221.428 165.063,221.847 165.587,222.159 166.000 C 222.470 166.412,222.805 166.825,222.904 166.917 C 223.003 167.008,223.530 167.646,224.077 168.333 C 224.623 169.021,225.152 169.658,225.252 169.750 C 225.352 169.842,225.730 170.292,226.092 170.750 C 226.453 171.208,226.862 171.726,227.000 171.900 C 227.137 172.074,227.362 172.338,227.500 172.486 C 227.637 172.635,228.012 173.092,228.333 173.503 C 228.654 173.914,229.035 174.362,229.179 174.500 C 229.323 174.637,229.730 175.125,230.082 175.583 C 230.434 176.042,230.987 176.698,231.311 177.042 C 231.636 177.385,231.851 177.667,231.789 177.667 C 231.728 177.667,231.883 177.877,232.134 178.134 C 232.385 178.390,232.803 178.859,233.062 179.175 C 233.322 179.491,233.477 179.637,233.408 179.500 C 233.339 179.362,233.170 179.119,233.032 178.958 C 232.808 178.697,232.810 178.667,233.058 178.667 C 233.209 178.667,233.333 178.599,233.333 178.516 C 233.333 178.433,233.660 178.173,234.060 177.939 C 234.460 177.705,235.041 177.263,235.352 176.958 C 235.662 176.652,236.367 176.056,236.917 175.633 C 237.467 175.210,238.367 174.444,238.917 173.932 C 239.467 173.419,239.976 173.000,240.049 173.000 C 240.122 173.000,240.616 172.644,241.147 172.208 C 241.679 171.773,242.659 171.004,243.326 170.500 C 243.992 169.996,244.754 169.380,245.019 169.131 C 245.283 168.882,245.500 168.718,245.500 168.767 C 245.500 168.856,246.511 168.189,246.667 167.997 C 246.734 167.914,247.641 167.226,249.250 166.037 C 249.814 165.620,250.930 164.743,251.000 164.662 C 251.046 164.608,251.458 164.282,251.917 163.936 C 252.375 163.591,253.028 163.051,253.368 162.737 C 253.707 162.423,254.036 162.167,254.098 162.167 C 254.159 162.167,254.488 161.923,254.829 161.625 C 255.169 161.327,255.957 160.671,256.580 160.167 C 257.203 159.662,258.066 158.931,258.498 158.542 C 259.441 157.692,259.525 157.683,260.062 158.370 C 260.293 158.665,260.518 158.871,260.562 158.827 C 260.606 158.783,260.382 158.447,260.064 158.082 C 259.746 157.716,259.270 157.168,259.006 156.863 C 258.742 156.559,258.526 156.272,258.527 156.226 C 258.528 156.179,258.240 155.820,257.889 155.427 C 257.080 154.524,256.315 153.600,254.982 151.917 C 254.401 151.183,253.875 150.546,253.813 150.500 C 253.752 150.454,253.088 149.667,252.337 148.750 C 250.575 146.597,249.884 145.758,249.167 144.905 C 248.846 144.523,248.440 144.032,248.265 143.813 C 248.090 143.595,247.752 143.185,247.515 142.901 C 247.278 142.618,246.812 142.056,246.480 141.651 C 246.147 141.247,245.285 140.214,244.563 139.355 C 243.841 138.496,243.064 137.558,242.837 137.271 C 241.640 135.761,239.932 133.743,239.808 133.694 C 239.730 133.664,239.667 133.533,239.667 133.403 C 239.667 133.273,239.607 133.167,239.534 133.167 C 239.461 133.167,239.128 132.810,238.792 132.375 C 238.457 131.940,238.011 131.396,237.800 131.166 C 237.589 130.937,236.974 130.187,236.434 129.500 C 235.893 128.812,235.368 128.175,235.267 128.083 C 235.166 127.992,234.596 127.318,234.000 126.586 C 233.404 125.854,232.802 125.138,232.661 124.996 C 232.520 124.854,232.182 124.441,231.911 124.077 C 231.639 123.714,231.180 123.154,230.892 122.833 C 230.603 122.513,229.863 121.612,229.247 120.833 C 228.632 120.054,228.080 119.379,228.022 119.333 C 227.964 119.287,227.618 118.875,227.253 118.417 C 226.889 117.958,226.514 117.500,226.420 117.397 C 226.190 117.145,225.714 116.570,224.917 115.579 C 224.024 114.468,223.634 114.005,223.324 113.684 C 223.182 113.537,222.808 113.079,222.493 112.667 C 222.179 112.254,221.845 111.835,221.752 111.734 C 221.659 111.634,221.283 111.192,220.917 110.751 C 220.550 110.311,219.987 109.636,219.667 109.252 C 219.346 108.867,218.821 108.230,218.500 107.836 C 218.179 107.441,217.467 106.579,216.917 105.919 C 216.367 105.259,214.754 103.307,213.333 101.581 C 211.912 99.855,210.619 98.306,210.458 98.138 C 210.298 97.971,210.167 97.758,210.167 97.667 C 210.167 97.575,210.110 97.500,210.042 97.499 C 209.973 97.499,209.545 97.039,209.091 96.478 C 208.638 95.916,208.188 95.372,208.091 95.268 C 207.995 95.165,207.432 94.481,206.839 93.748 C 206.246 93.016,205.721 92.379,205.672 92.333 C 205.623 92.287,205.096 91.651,204.500 90.919 C 203.904 90.187,203.304 89.467,203.167 89.319 C 203.029 89.171,202.804 88.905,202.667 88.729 C 201.792 87.604,201.041 86.690,200.672 86.300 C 200.437 86.052,199.908 85.399,199.497 84.848 C 198.695 83.773,198.557 83.700,198.158 84.135 M136.558 158.601 C 136.494 158.775,136.363 158.969,136.267 159.033 C 136.171 159.096,136.141 159.197,136.200 159.255 C 136.259 159.314,136.435 159.166,136.593 158.926 C 136.750 158.686,136.833 158.444,136.776 158.388 C 136.720 158.332,136.622 158.428,136.558 158.601 " stroke="none" fill="#3ea12c" fill-rule="evenodd"></path><path id="path3" d="M259.500 157.787 C 259.362 157.838,258.904 158.188,258.481 158.565 C 258.058 158.942,257.203 159.662,256.580 160.167 C 255.957 160.671,255.169 161.327,254.829 161.625 C 254.488 161.923,254.159 162.167,254.098 162.167 C 254.036 162.167,253.707 162.423,253.368 162.737 C 253.028 163.051,252.375 163.591,251.917 163.936 C 251.458 164.282,251.046 164.608,251.000 164.662 C 250.930 164.743,249.814 165.620,249.250 166.037 C 247.641 167.226,246.734 167.914,246.667 167.997 C 246.511 168.189,245.500 168.856,245.500 168.767 C 245.500 168.718,245.283 168.882,245.019 169.131 C 244.754 169.380,243.992 169.996,243.326 170.500 C 242.659 171.004,241.679 171.773,241.147 172.208 C 240.616 172.644,240.122 173.000,240.049 173.000 C 239.976 173.000,239.467 173.419,238.917 173.932 C 238.367 174.444,237.467 175.210,236.917 175.633 C 236.367 176.056,235.662 176.652,235.352 176.958 C 235.041 177.263,234.460 177.705,234.060 177.939 C 233.660 178.173,233.333 178.433,233.333 178.516 C 233.333 178.599,233.212 178.667,233.063 178.667 C 232.856 178.667,232.836 178.719,232.978 178.890 C 233.080 179.013,233.108 179.175,233.040 179.250 C 232.972 179.325,232.999 179.340,233.101 179.282 C 233.202 179.224,233.371 179.366,233.476 179.598 C 233.591 179.849,233.745 179.971,233.860 179.900 C 233.981 179.825,234.006 179.855,233.927 179.983 C 233.853 180.102,233.982 180.349,234.243 180.592 C 234.486 180.816,234.631 181.000,234.566 181.000 C 234.501 181.000,234.647 181.171,234.891 181.380 C 235.134 181.589,235.333 181.851,235.333 181.962 C 235.333 182.073,235.483 182.258,235.667 182.372 C 235.850 182.487,236.000 182.665,236.000 182.770 C 236.000 182.874,236.124 183.062,236.276 183.188 C 236.428 183.314,236.966 183.942,237.471 184.583 C 237.977 185.225,238.509 185.872,238.654 186.021 C 238.966 186.343,239.246 186.693,239.908 187.587 C 240.178 187.951,240.445 188.287,240.501 188.333 C 240.631 188.439,242.276 190.422,242.861 191.177 C 243.311 191.758,243.667 192.181,244.471 193.085 C 244.716 193.361,245.359 194.148,245.900 194.835 C 246.441 195.522,246.966 196.158,247.066 196.250 C 247.167 196.342,247.700 196.979,248.249 197.667 C 248.799 198.354,249.661 199.409,250.166 200.012 C 250.670 200.614,251.308 201.396,251.583 201.749 C 251.858 202.103,252.158 202.473,252.250 202.571 C 252.342 202.670,252.716 203.125,253.082 203.584 C 253.447 204.042,253.972 204.667,254.248 204.973 C 254.524 205.279,254.810 205.635,254.883 205.765 C 254.998 205.967,252.580 206.000,237.842 206.000 L 220.667 206.000 220.667 237.034 L 220.667 268.068 221.292 267.484 C 232.324 257.189,244.947 244.430,254.504 233.914 C 256.634 231.570,257.978 230.055,261.821 225.667 C 270.742 215.479,279.789 202.849,282.964 196.148 C 284.276 193.381,284.484 192.891,285.071 191.192 C 285.667 189.468,285.777 188.910,285.542 188.806 C 285.473 188.775,285.117 188.375,284.750 187.917 C 284.077 187.075,283.556 186.445,283.250 186.103 C 283.158 186.000,282.785 185.541,282.420 185.083 C 282.055 184.625,281.665 184.154,281.553 184.038 C 281.441 183.921,281.066 183.471,280.721 183.038 C 280.375 182.604,279.866 181.983,279.588 181.658 C 278.401 180.265,277.657 179.373,277.138 178.722 C 274.863 175.873,273.931 174.727,273.770 174.583 C 273.544 174.381,272.762 173.454,272.083 172.583 C 271.808 172.230,271.507 171.861,271.413 171.762 C 271.320 171.664,270.945 171.208,270.580 170.750 C 270.215 170.292,269.842 169.835,269.750 169.734 C 269.658 169.634,269.283 169.189,268.917 168.745 C 268.550 168.302,267.984 167.634,267.659 167.261 C 267.334 166.888,266.550 165.946,265.916 165.167 C 265.282 164.387,264.666 163.650,264.546 163.527 C 264.426 163.405,264.123 163.034,263.872 162.703 C 263.622 162.372,263.239 161.909,263.023 161.675 C 262.806 161.441,262.289 160.819,261.873 160.292 C 261.457 159.765,261.054 159.333,260.975 159.333 C 260.897 159.333,260.833 159.221,260.833 159.083 C 260.833 158.946,260.723 158.833,260.589 158.833 C 260.305 158.833,259.955 158.267,260.131 158.091 C 260.196 158.026,260.137 157.997,260.000 158.028 C 259.862 158.058,259.769 157.990,259.792 157.875 C 259.815 157.760,259.815 157.673,259.792 157.680 C 259.769 157.687,259.637 157.735,259.500 157.787 M136.627 158.845 C 136.467 159.126,136.264 159.310,136.175 159.255 C 136.087 159.201,135.903 159.364,135.768 159.620 C 135.633 159.875,135.132 160.496,134.656 161.000 C 134.180 161.504,133.508 162.292,133.163 162.750 C 132.819 163.208,132.378 163.749,132.185 163.951 C 131.992 164.154,131.833 164.398,131.833 164.493 C 131.833 164.589,131.765 164.667,131.681 164.667 C 131.597 164.667,131.129 165.173,130.641 165.792 C 130.154 166.410,129.678 166.999,129.585 167.100 C 129.493 167.201,129.117 167.649,128.750 168.095 C 128.383 168.541,127.952 169.039,127.792 169.203 C 127.631 169.366,127.500 169.569,127.500 169.653 C 127.500 169.737,127.441 169.831,127.368 169.861 C 127.296 169.892,126.835 170.404,126.345 171.000 C 125.854 171.596,125.389 172.108,125.310 172.139 C 125.231 172.169,125.167 172.301,125.167 172.431 C 125.167 172.560,125.110 172.667,125.042 172.667 C 124.973 172.668,124.545 173.127,124.091 173.689 C 123.638 174.250,123.188 174.795,123.091 174.898 C 122.995 175.002,122.432 175.686,121.839 176.418 C 121.246 177.151,120.718 177.787,120.666 177.833 C 120.614 177.879,120.093 178.517,119.508 179.250 C 118.924 179.983,118.364 180.658,118.264 180.750 C 118.165 180.842,117.783 181.292,117.417 181.750 C 116.744 182.591,116.223 183.222,115.917 183.564 C 115.825 183.667,115.450 184.125,115.084 184.584 C 114.376 185.468,113.859 186.092,113.580 186.397 C 113.486 186.500,113.111 186.958,112.747 187.416 C 112.382 187.875,112.008 188.332,111.917 188.432 C 111.825 188.533,111.450 188.975,111.083 189.415 C 110.717 189.855,110.154 190.530,109.833 190.915 C 109.513 191.299,108.987 191.940,108.667 192.338 C 108.346 192.736,107.854 193.329,107.574 193.656 C 107.293 193.983,106.582 194.850,105.993 195.583 C 105.405 196.317,104.672 197.191,104.365 197.526 C 104.059 197.862,103.645 198.357,103.446 198.627 C 103.040 199.177,102.007 200.459,101.747 200.736 C 101.653 200.835,101.278 201.292,100.913 201.750 C 100.548 202.208,100.166 202.658,100.063 202.750 C 99.961 202.842,99.518 203.367,99.080 203.917 C 98.642 204.467,98.239 204.954,98.183 205.000 C 98.128 205.046,97.635 205.646,97.089 206.333 C 96.542 207.021,95.980 207.704,95.839 207.851 C 95.551 208.152,95.217 208.554,94.250 209.755 C 93.527 210.654,93.014 211.271,92.747 211.564 C 92.653 211.666,92.278 212.125,91.913 212.583 C 91.548 213.042,91.205 213.454,91.151 213.500 C 91.096 213.546,90.541 214.221,89.917 215.000 C 89.293 215.779,88.735 216.454,88.677 216.500 C 88.619 216.546,88.087 217.183,87.495 217.917 C 86.902 218.650,86.294 219.400,86.142 219.583 C 85.364 220.526,84.432 221.630,84.104 222.000 C 83.900 222.229,83.287 222.979,82.742 223.667 C 82.196 224.354,81.667 224.992,81.566 225.083 C 81.466 225.175,80.941 225.813,80.400 226.500 C 79.859 227.188,79.336 227.825,79.238 227.917 C 79.140 228.008,78.353 228.946,77.491 230.000 C 75.380 232.580,71.134 237.706,70.921 237.931 C 70.827 238.030,70.487 238.439,70.167 238.839 C 69.166 240.086,67.938 241.580,67.842 241.667 C 67.791 241.713,67.450 242.125,67.084 242.583 C 66.202 243.685,65.805 244.158,65.488 244.482 C 65.344 244.629,64.883 245.200,64.463 245.750 C 64.043 246.300,63.531 246.927,63.325 247.144 C 63.119 247.361,62.687 247.886,62.363 248.311 C 62.040 248.736,61.689 249.158,61.582 249.250 C 61.475 249.342,60.909 250.017,60.325 250.750 C 59.740 251.483,59.219 252.121,59.167 252.167 C 59.114 252.213,58.587 252.850,57.995 253.583 C 56.878 254.966,56.371 255.579,56.080 255.897 C 55.986 256.000,55.611 256.454,55.247 256.906 C 54.882 257.359,54.371 257.959,54.112 258.239 C 53.853 258.520,53.409 259.069,53.126 259.458 C 52.842 259.848,52.548 260.167,52.472 260.167 C 52.396 260.167,52.333 260.246,52.333 260.342 C 52.333 260.439,52.104 260.758,51.824 261.051 C 51.543 261.344,51.080 261.902,50.795 262.292 C 50.510 262.681,50.215 263.000,50.138 263.000 C 50.062 263.000,50.000 263.106,50.000 263.236 C 50.000 263.366,49.933 263.497,49.852 263.528 C 49.770 263.558,49.424 263.921,49.082 264.333 C 48.740 264.746,48.212 265.383,47.909 265.750 C 46.780 267.112,46.186 267.908,46.248 267.970 C 46.321 268.044,47.054 267.232,48.189 265.820 C 49.007 264.803,51.302 262.041,51.583 261.736 C 51.675 261.636,52.012 261.229,52.333 260.831 C 52.654 260.433,53.517 259.388,54.250 258.508 C 54.983 257.629,56.478 255.823,57.573 254.496 C 58.667 253.169,60.058 251.483,60.665 250.750 C 61.271 250.017,62.884 248.067,64.249 246.417 C 68.195 241.646,68.789 240.927,71.490 237.667 C 72.894 235.971,74.325 234.246,74.670 233.833 C 76.111 232.108,80.220 227.138,86.989 218.930 C 88.129 217.548,89.560 215.817,90.168 215.083 C 91.638 213.312,95.695 208.397,98.572 204.903 C 99.849 203.352,101.391 201.483,101.999 200.750 C 102.608 200.017,104.190 198.104,105.515 196.500 C 110.742 190.175,111.586 189.168,111.667 189.170 C 111.712 189.171,112.039 190.063,112.393 191.153 C 115.821 201.710,129.033 219.354,150.467 242.000 C 156.114 247.967,175.396 267.065,176.262 267.550 C 176.468 267.665,176.500 263.521,176.500 236.842 L 176.500 206.000 159.333 206.000 C 149.892 206.000,142.167 205.939,142.167 205.865 C 142.167 205.791,142.377 205.509,142.634 205.240 C 142.891 204.970,143.659 204.075,144.342 203.250 C 145.024 202.425,145.620 201.713,145.666 201.667 C 145.868 201.466,146.972 200.174,147.583 199.423 C 147.950 198.973,148.362 198.484,148.500 198.336 C 148.716 198.105,149.536 197.140,150.750 195.688 C 150.933 195.468,151.170 195.199,151.276 195.089 C 151.381 194.979,151.865 194.408,152.350 193.820 C 152.835 193.231,153.276 192.713,153.329 192.667 C 153.382 192.621,154.020 191.871,154.747 191.000 C 155.474 190.129,156.147 189.335,156.243 189.236 C 156.338 189.136,156.679 188.727,157.000 188.327 C 157.632 187.539,158.530 186.467,158.670 186.333 C 158.718 186.287,159.131 185.801,159.587 185.251 C 160.043 184.702,160.492 184.167,160.583 184.064 C 160.675 183.960,161.050 183.514,161.417 183.072 C 161.783 182.630,162.215 182.133,162.375 181.968 C 162.535 181.802,162.667 181.594,162.667 181.506 C 162.667 181.417,162.817 181.265,163.000 181.167 C 163.183 181.069,163.333 180.839,163.333 180.656 C 163.333 180.473,163.445 180.280,163.582 180.227 C 163.719 180.175,163.782 180.052,163.722 179.954 C 163.651 179.839,163.724 179.817,163.931 179.892 C 164.106 179.956,163.950 179.746,163.583 179.427 C 163.217 179.107,162.875 178.843,162.824 178.840 C 162.773 178.836,162.445 178.571,162.095 178.250 C 161.745 177.929,161.382 177.667,161.288 177.667 C 161.194 177.667,160.772 177.348,160.350 176.958 C 159.928 176.569,159.334 176.063,159.031 175.833 C 158.727 175.604,158.240 175.207,157.948 174.950 C 157.656 174.693,156.967 174.136,156.417 173.712 C 155.867 173.288,155.295 172.823,155.145 172.679 C 154.804 172.349,154.426 172.042,153.584 171.414 C 153.218 171.140,152.667 170.692,152.360 170.417 C 152.052 170.142,151.729 169.917,151.641 169.917 C 151.554 169.917,151.318 169.761,151.116 169.572 C 150.915 169.382,150.337 168.920,149.833 168.544 C 149.329 168.169,148.467 167.512,147.917 167.085 C 147.367 166.658,146.384 165.906,145.732 165.415 C 145.081 164.924,144.299 164.274,143.995 163.970 C 143.691 163.665,143.386 163.417,143.317 163.417 C 143.249 163.417,142.680 162.952,142.055 162.383 C 141.429 161.815,140.508 161.045,140.008 160.673 C 139.509 160.300,139.059 159.935,139.008 159.861 C 138.900 159.703,137.084 158.333,136.985 158.334 C 136.947 158.335,136.786 158.565,136.627 158.845 " stroke="none" fill="#0e782c" fill-rule="evenodd"></path><path id="path4" d="M285.435 190.203 C 284.623 192.573,284.195 193.611,283.076 195.917 C 279.793 202.686,272.786 212.716,264.447 222.583 C 263.905 223.225,263.307 223.938,263.118 224.167 C 262.928 224.396,262.318 225.107,261.762 225.747 C 253.053 235.764,244.158 245.191,232.981 256.247 C 229.554 259.638,226.769 262.469,226.792 262.539 C 226.815 262.609,226.740 262.648,226.625 262.625 C 226.510 262.602,226.435 262.677,226.458 262.792 C 226.481 262.906,226.430 262.981,226.344 262.958 C 226.258 262.935,225.302 263.746,224.219 264.760 C 223.136 265.773,221.875 266.953,221.417 267.381 L 220.583 268.159 255.014 268.163 C 273.951 268.165,294.276 268.117,300.181 268.056 L 310.917 267.945 310.938 263.581 L 310.959 259.217 309.521 258.579 C 296.399 252.754,282.397 243.048,270.943 231.835 C 268.255 229.204,264.671 225.376,264.527 224.982 C 264.483 224.863,266.201 222.748,266.679 222.333 C 266.863 222.173,271.588 216.572,272.164 215.831 C 272.484 215.420,272.837 214.987,272.950 214.870 C 273.062 214.752,273.394 214.321,273.689 213.911 C 273.983 213.502,274.285 213.167,274.362 213.167 C 274.438 213.167,274.500 213.081,274.500 212.977 C 274.500 212.872,274.600 212.703,274.721 212.602 C 275.568 211.894,282.343 202.057,283.055 200.500 C 283.118 200.362,283.329 199.987,283.523 199.667 C 284.619 197.861,285.995 194.868,286.666 192.833 C 286.923 192.054,287.182 191.297,287.242 191.150 C 287.313 190.973,287.147 190.681,286.750 190.283 C 286.420 189.953,286.158 189.623,286.167 189.550 C 286.240 188.979,285.684 189.475,285.435 190.203 M131.847 226.049 C 122.974 236.219,108.954 247.343,96.250 254.292 C 81.316 262.461,67.268 266.483,51.848 267.004 C 48.024 267.134,47.058 267.213,46.834 267.416 C 46.681 267.554,46.502 267.613,46.436 267.547 C 46.370 267.481,46.365 267.556,46.426 267.713 C 46.529 267.984,50.223 268.000,111.532 268.000 C 147.280 268.000,176.503 267.936,176.472 267.858 C 176.442 267.781,175.785 267.162,175.013 266.483 C 162.647 255.621,144.855 238.207,135.011 227.333 C 132.578 224.645,132.943 224.793,131.847 226.049 M326.167 238.000 C 326.362 238.275,326.560 238.500,326.606 238.500 C 326.652 238.500,326.529 238.275,326.333 238.000 C 326.138 237.725,325.940 237.500,325.894 237.500 C 325.848 237.500,325.971 237.725,326.167 238.000 M312.240 259.919 C 312.418 260.055,312.662 260.167,312.782 260.167 C 313.154 260.167,313.024 260.041,312.458 259.852 C 311.963 259.687,311.944 259.692,312.240 259.919 M313.500 260.417 C 313.729 260.548,314.029 260.655,314.167 260.654 C 314.304 260.654,314.164 260.544,313.856 260.410 C 313.146 260.102,312.956 260.106,313.500 260.417 M314.583 260.798 C 314.810 260.998,316.336 261.553,316.423 261.466 C 316.461 261.428,316.025 261.229,315.454 261.024 C 314.884 260.818,314.492 260.717,314.583 260.798 M320.167 262.826 C 320.304 262.919,320.560 262.996,320.736 262.997 C 321.163 263.001,321.029 262.905,320.417 262.768 C 320.052 262.687,319.984 262.702,320.167 262.826 M321.750 263.333 C 321.933 263.412,322.196 263.477,322.333 263.477 C 322.491 263.477,322.460 263.424,322.250 263.333 C 322.067 263.255,321.804 263.190,321.667 263.190 C 321.509 263.190,321.540 263.243,321.750 263.333 M328.750 265.159 C 329.070 265.304,329.963 265.398,329.819 265.272 C 329.781 265.238,329.450 265.165,329.083 265.109 C 328.619 265.039,328.518 265.054,328.750 265.159 M333.917 266.167 C 334.192 266.237,334.642 266.294,334.917 266.294 C 335.337 266.295,335.311 266.273,334.750 266.157 C 333.906 265.982,333.224 265.990,333.917 266.167 M336.960 266.618 C 337.168 266.658,337.468 266.656,337.627 266.615 C 337.786 266.573,337.617 266.540,337.250 266.542 C 336.883 266.544,336.753 266.578,336.960 266.618 M338.460 266.785 C 338.668 266.824,338.968 266.823,339.127 266.781 C 339.286 266.739,339.117 266.707,338.750 266.709 C 338.383 266.711,338.253 266.745,338.460 266.785 M340.208 266.948 C 340.369 266.990,340.631 266.990,340.792 266.948 C 340.952 266.906,340.821 266.872,340.500 266.872 C 340.179 266.872,340.048 266.906,340.208 266.948 M342.129 267.122 C 342.521 267.157,343.121 267.157,343.463 267.121 C 343.804 267.085,343.483 267.057,342.750 267.057 C 342.017 267.058,341.737 267.087,342.129 267.122 M345.958 267.284 C 346.165 267.324,346.502 267.324,346.708 267.284 C 346.915 267.245,346.746 267.212,346.333 267.212 C 345.921 267.212,345.752 267.245,345.958 267.284 M348.663 267.291 C 350.000 267.338,350.301 267.401,350.621 267.702 C 350.830 267.898,351.000 267.982,351.000 267.888 C 351.000 267.352,350.390 267.167,348.737 267.201 L 347.083 267.236 348.663 267.291 " stroke="none" fill="#0b554d" fill-rule="evenodd"></path></g></svg>